<svg width="176" height="29" viewBox="0 0 176 29" fill="none" xmlns="http://www.w3.org/2000/svg">
<path d="M27.4454 8.60091C26.2979 6.07955 24.4519 3.94209 22.1272 2.44317C19.8025 0.944257 17.0972 0.147062 14.3335 0.14651C12.8636 0.143717 11.4025 0.373653 10.0041 0.827832L11.1993 3.34924C12.722 2.9025 14.3209 2.77924 15.8938 2.98733C17.4667 3.19541 18.979 3.73026 20.334 4.55771L17.1354 15.9164L13.664 8.66556L10.629 15.9811L8.43208 10.7692L7.06335 13.6934L10.4901 21.755L13.7185 14.5986L17.7553 23.3066L23.1806 7.02442C23.8738 7.86006 24.4494 8.78706 24.8915 9.77955C26.0014 12.2527 26.2123 15.0377 25.4876 17.6506C24.7628 20.2635 23.1482 22.5392 20.9242 24.0824L22.1193 26.6088C24.9848 24.7237 27.0922 21.8822 28.068 18.5878C29.0438 15.2934 28.825 11.7589 27.4504 8.61086" fill="#182752"/>
<path d="M18.6925 25.271C15.9326 26.4417 12.8278 26.4943 10.03 25.4179C7.23225 24.3415 4.95926 22.2198 3.6884 19.4984C2.41753 16.777 2.24767 13.6676 3.21449 10.8232C4.1813 7.97885 6.20958 5.62084 8.87334 4.2444L7.70793 1.75781C4.46422 3.45406 1.98979 6.32963 0.791272 9.79576C-0.407247 13.2619 -0.239191 17.0563 1.26104 20.4022C2.80368 23.8033 5.60231 26.4713 9.06749 27.8442C12.5327 29.2171 16.3939 29.1878 19.838 27.7625L18.6925 25.271Z" fill="#182752"/>
<path d="M45.1216 3.00037V26.4405H60.588V25.0348H46.6679V3.00037H45.1216Z" fill="black"/>
<path d="M89.0708 2.68408C82.218 2.68408 76.9114 8.02577 76.9114 14.7732C76.9114 21.5206 82.1828 26.8271 89.0708 26.8271C95.9236 26.8271 101.23 21.5206 101.23 14.7732C101.23 8.02577 95.9236 2.68408 89.0708 2.68408ZM89.0708 25.4214C83.0262 25.4214 78.528 20.7474 78.528 14.7732C78.528 8.76377 83.0262 4.08979 89.0708 4.08979C95.1153 4.08979 99.6136 8.76377 99.6136 14.7732C99.6136 20.7474 95.1153 25.4214 89.0708 25.4214Z" fill="black"/>
<path d="M132.289 2.68408C125.437 2.68408 120.13 8.02577 120.13 14.7732C120.13 21.5206 125.401 26.8271 132.289 26.8271C139.142 26.8271 144.449 21.5206 144.449 14.7732C144.449 8.02577 139.142 2.68408 132.289 2.68408ZM132.289 25.4214C126.245 25.4214 121.747 20.7474 121.747 14.7732C121.747 8.76377 126.245 4.08979 132.289 4.08979C138.334 4.08979 142.832 8.76377 142.832 14.7732C142.832 20.7474 138.334 25.4214 132.289 25.4214Z" fill="black"/>
<path d="M169.182 15.3003C173.224 15.3003 176 13.016 176 9.11519C176 5.10893 172.978 3.00037 169.147 3.00037H164.614V26.4405H166.16V15.3003H169.182ZM166.16 4.40607H169.007C172.415 4.40607 174.383 6.23349 174.383 9.15034C174.383 12.1023 172.31 13.8946 169.253 13.8946H166.16V4.40607Z" fill="black"/>
</svg>
