<svg width="382" height="578" viewBox="0 0 382 578" fill="none" xmlns="http://www.w3.org/2000/svg">
<g filter="url(#filter0_d_1585_16095)">
<path d="M339.174 554.826H36.8261C34.2215 554.833 31.6414 554.323 29.2349 553.327C26.8285 552.33 24.6436 550.866 22.8066 549.02C20.9601 547.183 19.4962 544.998 18.4995 542.591C17.5028 540.185 16.9932 537.605 17.0001 535L17.0004 450.26C17.4108 450.318 17.8249 450.348 18.2395 450.348C20.5391 450.345 22.7439 449.43 24.37 447.804C25.9961 446.178 26.9108 443.974 26.9134 441.674C26.9108 439.374 25.9961 437.17 24.37 435.543C22.7439 433.917 20.5391 433.003 18.2395 433C17.8249 433 17.4108 433.029 17.0004 433.088V36.8261C16.9934 34.2216 17.5031 31.6415 18.5 29.2353C19.4969 26.829 20.9612 24.6444 22.8081 22.8079C24.6449 20.9613 26.8296 19.4972 29.2358 18.5003C31.6419 17.5034 34.2219 16.9935 36.8264 17.0001H339.174C341.779 16.9932 344.359 17.5028 346.765 18.4995C349.171 19.4962 351.356 20.9602 353.193 22.8067C355.04 24.6437 356.504 26.8286 357.5 29.235C358.497 31.6414 359.007 34.2215 359 36.8261V433.359C358.196 433.12 357.361 432.999 356.522 433C354.222 433.003 352.017 433.917 350.391 435.543C348.765 437.17 347.85 439.374 347.848 441.674C347.85 443.974 348.765 446.178 350.391 447.804C352.017 449.43 354.222 450.345 356.522 450.348C357.361 450.348 358.196 450.227 359 449.988V535C359.007 537.605 358.497 540.185 357.5 542.591C356.504 544.998 355.04 547.183 353.193 549.02C351.356 550.866 349.171 552.33 346.765 553.327C344.359 554.323 341.778 554.833 339.174 554.826Z" fill="white"/>
</g>
<path d="M138.137 79H139.777V68.209H140.617L138.674 65.2988L144.338 79H145.822L151.486 65.2988L149.533 68.209H150.383V79H152.023V64.9082H149.982L145.139 76.6953H145.012L140.168 64.9082H138.137V79ZM158.02 79.1855C158.495 79.1855 158.931 79.1172 159.328 78.9805C159.725 78.8438 160.083 78.6452 160.402 78.3848C160.721 78.1178 160.988 77.7988 161.203 77.4277H161.33V79H163.029V71.832C163.029 71.1159 162.873 70.5007 162.561 69.9863C162.255 69.4655 161.802 69.0684 161.203 68.7949C160.611 68.515 159.895 68.375 159.055 68.375C158.293 68.375 157.619 68.4954 157.033 68.7363C156.447 68.9772 155.975 69.3092 155.617 69.7324C155.259 70.1556 155.041 70.6439 154.963 71.1973L154.953 71.2656H156.633L156.643 71.2266C156.773 70.8034 157.04 70.4746 157.443 70.2402C157.847 69.9993 158.368 69.8789 159.006 69.8789C159.774 69.8789 160.354 70.0514 160.744 70.3965C161.135 70.7415 161.33 71.2363 161.33 71.8809V75.0938C161.33 75.5885 161.203 76.0345 160.949 76.4316C160.695 76.8288 160.344 77.1413 159.895 77.3691C159.452 77.597 158.947 77.7109 158.381 77.7109C157.769 77.7109 157.264 77.5645 156.867 77.2715C156.477 76.9785 156.281 76.5716 156.281 76.0508V76.0312C156.281 75.5169 156.464 75.1165 156.828 74.8301C157.199 74.5436 157.772 74.3776 158.547 74.332L162.18 74.1074V72.7598L158.342 72.9844C157.535 73.0299 156.848 73.1797 156.281 73.4336C155.715 73.6875 155.282 74.0358 154.982 74.4785C154.689 74.9147 154.543 75.4421 154.543 76.0605V76.0801C154.543 76.7116 154.693 77.2617 154.992 77.7305C155.298 78.1927 155.712 78.5508 156.232 78.8047C156.76 79.0586 157.355 79.1855 158.02 79.1855ZM165.91 79H167.609V72.5352C167.609 72.0208 167.72 71.5749 167.941 71.1973C168.169 70.8132 168.482 70.5169 168.879 70.3086C169.276 70.1003 169.732 69.9961 170.246 69.9961C170.441 69.9961 170.62 70.0059 170.783 70.0254C170.952 70.0384 171.112 70.0612 171.262 70.0938V68.4434C171.177 68.4303 171.06 68.4173 170.91 68.4043C170.76 68.3848 170.607 68.375 170.451 68.375C169.774 68.375 169.201 68.5345 168.732 68.8535C168.264 69.166 167.935 69.6022 167.746 70.1621H167.609V68.5605H165.91V79ZM174.25 82.623C174.875 82.623 175.399 82.5319 175.822 82.3496C176.252 82.1673 176.62 81.8581 176.926 81.4219C177.238 80.9922 177.538 80.3997 177.824 79.6445L181.896 68.5605H180.109L176.945 78.082L177.551 77.1738H176.818L177.414 78.082L174.25 68.5605H172.434L176.301 79.0098L176.096 79.625C175.907 80.224 175.656 80.6374 175.344 80.8652C175.031 81.0996 174.628 81.2168 174.133 81.2168C174.016 81.2168 173.898 81.2135 173.781 81.207C173.664 81.2005 173.56 81.1875 173.469 81.168V82.5645C173.579 82.584 173.706 82.597 173.85 82.6035C173.993 82.6165 174.126 82.623 174.25 82.623ZM190.324 73.9707H194.689C195.575 73.9707 196.356 73.7786 197.033 73.3945C197.71 73.0104 198.241 72.4766 198.625 71.793C199.016 71.1094 199.211 70.3216 199.211 69.4297V69.4102C199.211 68.5182 199.016 67.7337 198.625 67.0566C198.241 66.3796 197.71 65.8522 197.033 65.4746C196.356 65.097 195.575 64.9082 194.689 64.9082H190.324V66.4707H194.24C195.249 66.4707 196.031 66.7311 196.584 67.252C197.137 67.7728 197.414 68.4987 197.414 69.4297V69.4492C197.414 70.3737 197.137 71.0996 196.584 71.627C196.031 72.1478 195.249 72.4082 194.24 72.4082H190.324V73.9707ZM189.445 79H191.203V64.9082H189.445V79ZM205.598 79.1855C206.197 79.1855 206.743 79.1074 207.238 78.9512C207.733 78.7949 208.163 78.5801 208.527 78.3066C208.892 78.0332 209.191 77.7272 209.426 77.3887C209.66 77.0436 209.82 76.6855 209.904 76.3145L209.924 76.2363H208.234L208.195 76.3242C208.104 76.5521 207.945 76.7702 207.717 76.9785C207.489 77.1803 207.199 77.3464 206.848 77.4766C206.503 77.6068 206.099 77.6719 205.637 77.6719C205.005 77.6719 204.455 77.5319 203.986 77.252C203.524 76.972 203.166 76.5716 202.912 76.0508C202.665 75.5234 202.541 74.8887 202.541 74.1465V73.4824C202.541 72.7012 202.668 72.0436 202.922 71.5098C203.182 70.9759 203.534 70.5723 203.977 70.2988C204.419 70.0254 204.921 69.8887 205.48 69.8887C206.04 69.8887 206.535 70.0189 206.965 70.2793C207.395 70.5397 207.733 70.9336 207.98 71.4609C208.228 71.9883 208.352 72.6621 208.352 73.4824V74.1465L209.191 72.9062H201.672V74.2637H210.051V73.6094C210.051 72.5677 209.868 71.6562 209.504 70.875C209.139 70.0872 208.615 69.4753 207.932 69.0391C207.248 68.5964 206.434 68.375 205.49 68.375C204.546 68.375 203.719 68.6061 203.01 69.0684C202.307 69.5241 201.763 70.1589 201.379 70.9727C200.995 71.7865 200.803 72.7305 200.803 73.8047V73.8145C200.803 74.9082 200.995 75.8587 201.379 76.666C201.763 77.4668 202.313 78.0885 203.029 78.5312C203.745 78.9674 204.602 79.1855 205.598 79.1855ZM212.473 79H214.172V72.5352C214.172 72.0208 214.283 71.5749 214.504 71.1973C214.732 70.8132 215.044 70.5169 215.441 70.3086C215.839 70.1003 216.294 69.9961 216.809 69.9961C217.004 69.9961 217.183 70.0059 217.346 70.0254C217.515 70.0384 217.674 70.0612 217.824 70.0938V68.4434C217.74 68.4303 217.622 68.4173 217.473 68.4043C217.323 68.3848 217.17 68.375 217.014 68.375C216.337 68.375 215.764 68.5345 215.295 68.8535C214.826 69.166 214.497 69.6022 214.309 70.1621H214.172V68.5605H212.473V79ZM223.703 79.1855C224.302 79.1855 224.849 79.1074 225.344 78.9512C225.839 78.7949 226.268 78.5801 226.633 78.3066C226.997 78.0332 227.297 77.7272 227.531 77.3887C227.766 77.0436 227.925 76.6855 228.01 76.3145L228.029 76.2363H226.34L226.301 76.3242C226.21 76.5521 226.05 76.7702 225.822 76.9785C225.594 77.1803 225.305 77.3464 224.953 77.4766C224.608 77.6068 224.204 77.6719 223.742 77.6719C223.111 77.6719 222.561 77.5319 222.092 77.252C221.63 76.972 221.271 76.5716 221.018 76.0508C220.77 75.5234 220.646 74.8887 220.646 74.1465V73.4824C220.646 72.7012 220.773 72.0436 221.027 71.5098C221.288 70.9759 221.639 70.5723 222.082 70.2988C222.525 70.0254 223.026 69.8887 223.586 69.8887C224.146 69.8887 224.641 70.0189 225.07 70.2793C225.5 70.5397 225.839 70.9336 226.086 71.4609C226.333 71.9883 226.457 72.6621 226.457 73.4824V74.1465L227.297 72.9062H219.777V74.2637H228.156V73.6094C228.156 72.5677 227.974 71.6562 227.609 70.875C227.245 70.0872 226.721 69.4753 226.037 69.0391C225.354 68.5964 224.54 68.375 223.596 68.375C222.652 68.375 221.825 68.6061 221.115 69.0684C220.412 69.5241 219.868 70.1589 219.484 70.9727C219.1 71.7865 218.908 72.7305 218.908 73.8047V73.8145C218.908 74.9082 219.1 75.8587 219.484 76.666C219.868 77.4668 220.419 78.0885 221.135 78.5312C221.851 78.9674 222.707 79.1855 223.703 79.1855ZM230.344 79H238.322V77.5938H232.365V77.4668L238.293 69.8203V68.5605H230.354V69.9668H236.311V70.0938L230.344 77.7695V79Z" fill="#363636"/>
<path d="M170.759 143H163.862V149.897H170.759V143Z" fill="#363636"/>
<path d="M198.345 143H191.448V149.897H198.345V143Z" fill="#363636"/>
<path d="M205.241 143H198.345V149.897H205.241V143Z" fill="#363636"/>
<path d="M219.034 143H212.138V149.897H219.034V143Z" fill="#363636"/>
<path d="M150.069 149.897H143.172V156.793H150.069V149.897Z" fill="#363636"/>
<path d="M170.759 149.897H163.862V156.793H170.759V149.897Z" fill="#363636"/>
<path d="M184.552 149.897H177.655V156.793H184.552V149.897Z" fill="#363636"/>
<path d="M191.448 149.897H184.552V156.793H191.448V149.897Z" fill="#363636"/>
<path d="M205.241 149.897H198.345V156.793H205.241V149.897Z" fill="#363636"/>
<path d="M212.138 149.897H205.241V156.793H212.138V149.897Z" fill="#363636"/>
<path d="M232.828 149.897H225.931V156.793H232.828V149.897Z" fill="#363636"/>
<path d="M150.069 156.793H143.172V163.69H150.069V156.793Z" fill="#363636"/>
<path d="M156.966 156.793H150.069V163.69H156.966V156.793Z" fill="#363636"/>
<path d="M163.862 156.793H156.966V163.69H163.862V156.793Z" fill="#363636"/>
<path d="M170.759 156.793H163.862V163.69H170.759V156.793Z" fill="#363636"/>
<path d="M184.552 156.793H177.655V163.69H184.552V156.793Z" fill="#363636"/>
<path d="M198.345 156.793H191.448V163.69H198.345V156.793Z" fill="#363636"/>
<path d="M219.034 156.793H212.138V163.69H219.034V156.793Z" fill="#363636"/>
<path d="M150.069 163.69H143.172V170.586H150.069V163.69Z" fill="#363636"/>
<path d="M205.241 163.69H198.345V170.586H205.241V163.69Z" fill="#363636"/>
<path d="M212.138 163.69H205.241V170.586H212.138V163.69Z" fill="#363636"/>
<path d="M225.931 163.69H219.034V170.586H225.931V163.69Z" fill="#363636"/>
<path d="M232.828 163.69H225.931V170.586H232.828V163.69Z" fill="#363636"/>
<path d="M156.966 170.586H150.069V177.483H156.966V170.586Z" fill="#363636"/>
<path d="M163.862 170.586H156.966V177.483H163.862V170.586Z" fill="#363636"/>
<path d="M170.759 170.586H163.862V177.483H170.759V170.586Z" fill="#363636"/>
<path d="M177.655 170.586H170.759V177.483H177.655V170.586Z" fill="#363636"/>
<path d="M198.345 170.586H191.448V177.483H198.345V170.586Z" fill="#363636"/>
<path d="M205.241 170.586H198.345V177.483H205.241V170.586Z" fill="#363636"/>
<path d="M219.034 170.586H212.138V177.483H219.034V170.586Z" fill="#363636"/>
<path d="M225.931 170.586H219.034V177.483H225.931V170.586Z" fill="#363636"/>
<path d="M232.828 170.586H225.931V177.483H232.828V170.586Z" fill="#363636"/>
<path d="M198.345 177.483H191.448V184.379H198.345V177.483Z" fill="#363636"/>
<path d="M150.069 184.379H143.172V191.276H150.069V184.379Z" fill="#363636"/>
<path d="M163.862 184.379H156.966V191.276H163.862V184.379Z" fill="#363636"/>
<path d="M177.655 184.379H170.759V191.276H177.655V184.379Z" fill="#363636"/>
<path d="M191.448 184.379H184.552V191.276H191.448V184.379Z" fill="#363636"/>
<path d="M205.241 184.379H198.345V191.276H205.241V184.379Z" fill="#363636"/>
<path d="M219.034 184.379H212.138V191.276H219.034V184.379Z" fill="#363636"/>
<path d="M232.828 184.379H225.931V191.276H232.828V184.379Z" fill="#363636"/>
<path d="M150.069 191.276H143.172V198.172H150.069V191.276Z" fill="#363636"/>
<path d="M170.759 191.276H163.862V198.172H170.759V191.276Z" fill="#363636"/>
<path d="M191.448 191.276H184.552V198.172H191.448V191.276Z" fill="#363636"/>
<path d="M198.345 191.276H191.448V198.172H198.345V191.276Z" fill="#363636"/>
<path d="M205.241 191.276H198.345V198.172H205.241V191.276Z" fill="#363636"/>
<path d="M232.828 191.276H225.931V198.172H232.828V191.276Z" fill="#363636"/>
<path d="M94.8966 198.172H88V205.069H94.8966V198.172Z" fill="#363636"/>
<path d="M136.276 198.172H129.379V205.069H136.276V198.172Z" fill="#363636"/>
<path d="M150.069 198.172H143.172V205.069H150.069V198.172Z" fill="#363636"/>
<path d="M156.966 198.172H150.069V205.069H156.966V198.172Z" fill="#363636"/>
<path d="M170.759 198.172H163.862V205.069H170.759V198.172Z" fill="#363636"/>
<path d="M177.655 198.172H170.759V205.069H177.655V198.172Z" fill="#363636"/>
<path d="M205.241 198.172H198.345V205.069H205.241V198.172Z" fill="#363636"/>
<path d="M212.138 198.172H205.241V205.069H212.138V198.172Z" fill="#363636"/>
<path d="M219.034 198.172H212.138V205.069H219.034V198.172Z" fill="#363636"/>
<path d="M225.931 198.172H219.034V205.069H225.931V198.172Z" fill="#363636"/>
<path d="M239.724 198.172H232.828V205.069H239.724V198.172Z" fill="#363636"/>
<path d="M246.621 198.172H239.724V205.069H246.621V198.172Z" fill="#363636"/>
<path d="M267.31 198.172H260.414V205.069H267.31V198.172Z" fill="#363636"/>
<path d="M274.207 198.172H267.31V205.069H274.207V198.172Z" fill="#363636"/>
<path d="M281.103 198.172H274.207V205.069H281.103V198.172Z" fill="#363636"/>
<path d="M101.793 205.069H94.8966V211.966H101.793V205.069Z" fill="#363636"/>
<path d="M122.483 205.069H115.586V211.966H122.483V205.069Z" fill="#363636"/>
<path d="M129.379 205.069H122.483V211.966H129.379V205.069Z" fill="#363636"/>
<path d="M143.172 205.069H136.276V211.966H143.172V205.069Z" fill="#363636"/>
<path d="M150.069 205.069H143.172V211.966H150.069V205.069Z" fill="#363636"/>
<path d="M156.966 205.069H150.069V211.966H156.966V205.069Z" fill="#363636"/>
<path d="M163.862 205.069H156.966V211.966H163.862V205.069Z" fill="#363636"/>
<path d="M184.552 205.069H177.655V211.966H184.552V205.069Z" fill="#363636"/>
<path d="M205.241 205.069H198.345V211.966H205.241V205.069Z" fill="#363636"/>
<path d="M212.138 205.069H205.241V211.966H212.138V205.069Z" fill="#363636"/>
<path d="M219.034 205.069H212.138V211.966H219.034V205.069Z" fill="#363636"/>
<path d="M225.931 205.069H219.034V211.966H225.931V205.069Z" fill="#363636"/>
<path d="M253.517 205.069H246.621V211.966H253.517V205.069Z" fill="#363636"/>
<path d="M260.414 205.069H253.517V211.966H260.414V205.069Z" fill="#363636"/>
<path d="M274.207 205.069H267.31V211.966H274.207V205.069Z" fill="#363636"/>
<path d="M281.103 205.069H274.207V211.966H281.103V205.069Z" fill="#363636"/>
<path d="M108.69 211.966H101.793V218.862H108.69V211.966Z" fill="#363636"/>
<path d="M122.483 211.966H115.586V218.862H122.483V211.966Z" fill="#363636"/>
<path d="M136.276 211.966H129.379V218.862H136.276V211.966Z" fill="#363636"/>
<path d="M150.069 211.966H143.172V218.862H150.069V211.966Z" fill="#363636"/>
<path d="M156.966 211.966H150.069V218.862H156.966V211.966Z" fill="#363636"/>
<path d="M177.655 211.966H170.759V218.862H177.655V211.966Z" fill="#363636"/>
<path d="M184.552 211.966H177.655V218.862H184.552V211.966Z" fill="#363636"/>
<path d="M191.448 211.966H184.552V218.862H191.448V211.966Z" fill="#363636"/>
<path d="M198.345 211.966H191.448V218.862H198.345V211.966Z" fill="#363636"/>
<path d="M205.241 211.966H198.345V218.862H205.241V211.966Z" fill="#363636"/>
<path d="M212.138 211.966H205.241V218.862H212.138V211.966Z" fill="#363636"/>
<path d="M94.8966 218.862H88V225.759H94.8966V218.862Z" fill="#363636"/>
<path d="M101.793 218.862H94.8966V225.759H101.793V218.862Z" fill="#363636"/>
<path d="M108.69 218.862H101.793V225.759H108.69V218.862Z" fill="#363636"/>
<path d="M115.586 218.862H108.69V225.759H115.586V218.862Z" fill="#363636"/>
<path d="M163.862 218.862H156.966V225.759H163.862V218.862Z" fill="#363636"/>
<path d="M170.759 218.862H163.862V225.759H170.759V218.862Z" fill="#363636"/>
<path d="M184.552 218.862H177.655V225.759H184.552V218.862Z" fill="#363636"/>
<path d="M219.034 218.862H212.138V225.759H219.034V218.862Z" fill="#363636"/>
<path d="M232.828 218.862H225.931V225.759H232.828V218.862Z" fill="#363636"/>
<path d="M239.724 218.862H232.828V225.759H239.724V218.862Z" fill="#363636"/>
<path d="M246.621 218.862H239.724V225.759H246.621V218.862Z" fill="#363636"/>
<path d="M253.517 218.862H246.621V225.759H253.517V218.862Z" fill="#363636"/>
<path d="M267.31 218.862H260.414V225.759H267.31V218.862Z" fill="#363636"/>
<path d="M94.8966 225.759H88V232.655H94.8966V225.759Z" fill="#363636"/>
<path d="M101.793 225.759H94.8966V232.655H101.793V225.759Z" fill="#363636"/>
<path d="M122.483 225.759H115.586V232.655H122.483V225.759Z" fill="#363636"/>
<path d="M136.276 225.759H129.379V232.655H136.276V225.759Z" fill="#363636"/>
<path d="M150.069 225.759H143.172V232.655H150.069V225.759Z" fill="#363636"/>
<path d="M163.862 225.759H156.966V232.655H163.862V225.759Z" fill="#363636"/>
<path d="M170.759 225.759H163.862V232.655H170.759V225.759Z" fill="#363636"/>
<path d="M177.655 225.759H170.759V232.655H177.655V225.759Z" fill="#363636"/>
<path d="M184.552 225.759H177.655V232.655H184.552V225.759Z" fill="#363636"/>
<path d="M198.345 225.759H191.448V232.655H198.345V225.759Z" fill="#363636"/>
<path d="M205.241 225.759H198.345V232.655H205.241V225.759Z" fill="#363636"/>
<path d="M225.931 225.759H219.034V232.655H225.931V225.759Z" fill="#363636"/>
<path d="M246.621 225.759H239.724V232.655H246.621V225.759Z" fill="#363636"/>
<path d="M253.517 225.759H246.621V232.655H253.517V225.759Z" fill="#363636"/>
<path d="M288 225.759H281.103V232.655H288V225.759Z" fill="#363636"/>
<path d="M115.586 232.655H108.69V239.552H115.586V232.655Z" fill="#363636"/>
<path d="M122.483 232.655H115.586V239.552H122.483V232.655Z" fill="#363636"/>
<path d="M129.379 232.655H122.483V239.552H129.379V232.655Z" fill="#363636"/>
<path d="M150.069 232.655H143.172V239.552H150.069V232.655Z" fill="#363636"/>
<path d="M156.966 232.655H150.069V239.552H156.966V232.655Z" fill="#363636"/>
<path d="M170.759 232.655H163.862V239.552H170.759V232.655Z" fill="#363636"/>
<path d="M205.241 232.655H198.345V239.552H205.241V232.655Z" fill="#363636"/>
<path d="M219.034 232.655H212.138V239.552H219.034V232.655Z" fill="#363636"/>
<path d="M225.931 232.655H219.034V239.552H225.931V232.655Z" fill="#363636"/>
<path d="M232.828 232.655H225.931V239.552H232.828V232.655Z" fill="#363636"/>
<path d="M246.621 232.655H239.724V239.552H246.621V232.655Z" fill="#363636"/>
<path d="M260.414 232.655H253.517V239.552H260.414V232.655Z" fill="#363636"/>
<path d="M281.103 232.655H274.207V239.552H281.103V232.655Z" fill="#363636"/>
<path d="M288 232.655H281.103V239.552H288V232.655Z" fill="#363636"/>
<path d="M136.276 239.552H129.379V246.448H136.276V239.552Z" fill="#363636"/>
<path d="M143.172 239.552H136.276V246.448H143.172V239.552Z" fill="#363636"/>
<path d="M156.966 239.552H150.069V246.448H156.966V239.552Z" fill="#363636"/>
<path d="M163.862 239.552H156.966V246.448H163.862V239.552Z" fill="#363636"/>
<path d="M170.759 239.552H163.862V246.448H170.759V239.552Z" fill="#363636"/>
<path d="M177.655 239.552H170.759V246.448H177.655V239.552Z" fill="#363636"/>
<path d="M212.138 239.552H205.241V246.448H212.138V239.552Z" fill="#363636"/>
<path d="M219.034 239.552H212.138V246.448H219.034V239.552Z" fill="#363636"/>
<path d="M246.621 239.552H239.724V246.448H246.621V239.552Z" fill="#363636"/>
<path d="M253.517 239.552H246.621V246.448H253.517V239.552Z" fill="#363636"/>
<path d="M267.31 239.552H260.414V246.448H267.31V239.552Z" fill="#363636"/>
<path d="M274.207 239.552H267.31V246.448H274.207V239.552Z" fill="#363636"/>
<path d="M101.793 246.448H94.8966V253.345H101.793V246.448Z" fill="#363636"/>
<path d="M108.69 246.448H101.793V253.345H108.69V246.448Z" fill="#363636"/>
<path d="M115.586 246.448H108.69V253.345H115.586V246.448Z" fill="#363636"/>
<path d="M122.483 246.448H115.586V253.345H122.483V246.448Z" fill="#363636"/>
<path d="M143.172 246.448H136.276V253.345H143.172V246.448Z" fill="#363636"/>
<path d="M156.966 246.448H150.069V253.345H156.966V246.448Z" fill="#363636"/>
<path d="M170.759 246.448H163.862V253.345H170.759V246.448Z" fill="#363636"/>
<path d="M198.345 246.448H191.448V253.345H198.345V246.448Z" fill="#363636"/>
<path d="M232.828 246.448H225.931V253.345H232.828V246.448Z" fill="#363636"/>
<path d="M239.724 246.448H232.828V253.345H239.724V246.448Z" fill="#363636"/>
<path d="M253.517 246.448H246.621V253.345H253.517V246.448Z" fill="#363636"/>
<path d="M260.414 246.448H253.517V253.345H260.414V246.448Z" fill="#363636"/>
<path d="M274.207 246.448H267.31V253.345H274.207V246.448Z" fill="#363636"/>
<path d="M288 246.448H281.103V253.345H288V246.448Z" fill="#363636"/>
<path d="M115.586 253.345H108.69V260.241H115.586V253.345Z" fill="#363636"/>
<path d="M122.483 253.345H115.586V260.241H122.483V253.345Z" fill="#363636"/>
<path d="M129.379 253.345H122.483V260.241H129.379V253.345Z" fill="#363636"/>
<path d="M136.276 253.345H129.379V260.241H136.276V253.345Z" fill="#363636"/>
<path d="M143.172 253.345H136.276V260.241H143.172V253.345Z" fill="#363636"/>
<path d="M156.966 253.345H150.069V260.241H156.966V253.345Z" fill="#363636"/>
<path d="M170.759 253.345H163.862V260.241H170.759V253.345Z" fill="#363636"/>
<path d="M177.655 253.345H170.759V260.241H177.655V253.345Z" fill="#363636"/>
<path d="M205.241 253.345H198.345V260.241H205.241V253.345Z" fill="#363636"/>
<path d="M212.138 253.345H205.241V260.241H212.138V253.345Z" fill="#363636"/>
<path d="M225.931 253.345H219.034V260.241H225.931V253.345Z" fill="#363636"/>
<path d="M253.517 253.345H246.621V260.241H253.517V253.345Z" fill="#363636"/>
<path d="M267.31 253.345H260.414V260.241H267.31V253.345Z" fill="#363636"/>
<path d="M274.207 253.345H267.31V260.241H274.207V253.345Z" fill="#363636"/>
<path d="M94.8966 260.241H88V267.138H94.8966V260.241Z" fill="#363636"/>
<path d="M108.69 260.241H101.793V267.138H108.69V260.241Z" fill="#363636"/>
<path d="M143.172 260.241H136.276V267.138H143.172V260.241Z" fill="#363636"/>
<path d="M150.069 260.241H143.172V267.138H150.069V260.241Z" fill="#363636"/>
<path d="M156.966 260.241H150.069V267.138H156.966V260.241Z" fill="#363636"/>
<path d="M170.759 260.241H163.862V267.138H170.759V260.241Z" fill="#363636"/>
<path d="M184.552 260.241H177.655V267.138H184.552V260.241Z" fill="#363636"/>
<path d="M191.448 260.241H184.552V267.138H191.448V260.241Z" fill="#363636"/>
<path d="M212.138 260.241H205.241V267.138H212.138V260.241Z" fill="#363636"/>
<path d="M219.034 260.241H212.138V267.138H219.034V260.241Z" fill="#363636"/>
<path d="M225.931 260.241H219.034V267.138H225.931V260.241Z" fill="#363636"/>
<path d="M232.828 260.241H225.931V267.138H232.828V260.241Z" fill="#363636"/>
<path d="M246.621 260.241H239.724V267.138H246.621V260.241Z" fill="#363636"/>
<path d="M253.517 260.241H246.621V267.138H253.517V260.241Z" fill="#363636"/>
<path d="M260.414 260.241H253.517V267.138H260.414V260.241Z" fill="#363636"/>
<path d="M274.207 260.241H267.31V267.138H274.207V260.241Z" fill="#363636"/>
<path d="M281.103 260.241H274.207V267.138H281.103V260.241Z" fill="#363636"/>
<path d="M288 260.241H281.103V267.138H288V260.241Z" fill="#363636"/>
<path d="M94.8966 267.138H88V274.034H94.8966V267.138Z" fill="#363636"/>
<path d="M101.793 267.138H94.8966V274.034H101.793V267.138Z" fill="#363636"/>
<path d="M108.69 267.138H101.793V274.034H108.69V267.138Z" fill="#363636"/>
<path d="M136.276 267.138H129.379V274.034H136.276V267.138Z" fill="#363636"/>
<path d="M163.862 267.138H156.966V274.034H163.862V267.138Z" fill="#363636"/>
<path d="M177.655 267.138H170.759V274.034H177.655V267.138Z" fill="#363636"/>
<path d="M198.345 267.138H191.448V274.034H198.345V267.138Z" fill="#363636"/>
<path d="M225.931 267.138H219.034V274.034H225.931V267.138Z" fill="#363636"/>
<path d="M239.724 267.138H232.828V274.034H239.724V267.138Z" fill="#363636"/>
<path d="M246.621 267.138H239.724V274.034H246.621V267.138Z" fill="#363636"/>
<path d="M267.31 267.138H260.414V274.034H267.31V267.138Z" fill="#363636"/>
<path d="M288 267.138H281.103V274.034H288V267.138Z" fill="#363636"/>
<path d="M94.8966 274.034H88V280.931H94.8966V274.034Z" fill="#363636"/>
<path d="M115.586 274.034H108.69V280.931H115.586V274.034Z" fill="#363636"/>
<path d="M143.172 274.034H136.276V280.931H143.172V274.034Z" fill="#363636"/>
<path d="M150.069 274.034H143.172V280.931H150.069V274.034Z" fill="#363636"/>
<path d="M156.966 274.034H150.069V280.931H156.966V274.034Z" fill="#363636"/>
<path d="M184.552 274.034H177.655V280.931H184.552V274.034Z" fill="#363636"/>
<path d="M225.931 274.034H219.034V280.931H225.931V274.034Z" fill="#363636"/>
<path d="M232.828 274.034H225.931V280.931H232.828V274.034Z" fill="#363636"/>
<path d="M246.621 274.034H239.724V280.931H246.621V274.034Z" fill="#363636"/>
<path d="M253.517 274.034H246.621V280.931H253.517V274.034Z" fill="#363636"/>
<path d="M260.414 274.034H253.517V280.931H260.414V274.034Z" fill="#363636"/>
<path d="M94.8966 280.931H88V287.828H94.8966V280.931Z" fill="#363636"/>
<path d="M115.586 280.931H108.69V287.828H115.586V280.931Z" fill="#363636"/>
<path d="M122.483 280.931H115.586V287.828H122.483V280.931Z" fill="#363636"/>
<path d="M129.379 280.931H122.483V287.828H129.379V280.931Z" fill="#363636"/>
<path d="M136.276 280.931H129.379V287.828H136.276V280.931Z" fill="#363636"/>
<path d="M156.966 280.931H150.069V287.828H156.966V280.931Z" fill="#363636"/>
<path d="M177.655 280.931H170.759V287.828H177.655V280.931Z" fill="#363636"/>
<path d="M191.448 280.931H184.552V287.828H191.448V280.931Z" fill="#363636"/>
<path d="M198.345 280.931H191.448V287.828H198.345V280.931Z" fill="#363636"/>
<path d="M212.138 280.931H205.241V287.828H212.138V280.931Z" fill="#363636"/>
<path d="M232.828 280.931H225.931V287.828H232.828V280.931Z" fill="#363636"/>
<path d="M239.724 280.931H232.828V287.828H239.724V280.931Z" fill="#363636"/>
<path d="M246.621 280.931H239.724V287.828H246.621V280.931Z" fill="#363636"/>
<path d="M253.517 280.931H246.621V287.828H253.517V280.931Z" fill="#363636"/>
<path d="M260.414 280.931H253.517V287.828H260.414V280.931Z" fill="#363636"/>
<path d="M274.207 280.931H267.31V287.828H274.207V280.931Z" fill="#363636"/>
<path d="M281.103 280.931H274.207V287.828H281.103V280.931Z" fill="#363636"/>
<path d="M288 280.931H281.103V287.828H288V280.931Z" fill="#363636"/>
<path d="M150.069 287.828H143.172V294.724H150.069V287.828Z" fill="#363636"/>
<path d="M156.966 287.828H150.069V294.724H156.966V287.828Z" fill="#363636"/>
<path d="M170.759 287.828H163.862V294.724H170.759V287.828Z" fill="#363636"/>
<path d="M191.448 287.828H184.552V294.724H191.448V287.828Z" fill="#363636"/>
<path d="M212.138 287.828H205.241V294.724H212.138V287.828Z" fill="#363636"/>
<path d="M219.034 287.828H212.138V294.724H219.034V287.828Z" fill="#363636"/>
<path d="M232.828 287.828H225.931V294.724H232.828V287.828Z" fill="#363636"/>
<path d="M260.414 287.828H253.517V294.724H260.414V287.828Z" fill="#363636"/>
<path d="M267.31 287.828H260.414V294.724H267.31V287.828Z" fill="#363636"/>
<path d="M170.759 294.724H163.862V301.621H170.759V294.724Z" fill="#363636"/>
<path d="M177.655 294.724H170.759V301.621H177.655V294.724Z" fill="#363636"/>
<path d="M225.931 294.724H219.034V301.621H225.931V294.724Z" fill="#363636"/>
<path d="M232.828 294.724H225.931V301.621H232.828V294.724Z" fill="#363636"/>
<path d="M246.621 294.724H239.724V301.621H246.621V294.724Z" fill="#363636"/>
<path d="M260.414 294.724H253.517V301.621H260.414V294.724Z" fill="#363636"/>
<path d="M267.31 294.724H260.414V301.621H267.31V294.724Z" fill="#363636"/>
<path d="M274.207 294.724H267.31V301.621H274.207V294.724Z" fill="#363636"/>
<path d="M156.966 301.621H150.069V308.517H156.966V301.621Z" fill="#363636"/>
<path d="M163.862 301.621H156.966V308.517H163.862V301.621Z" fill="#363636"/>
<path d="M170.759 301.621H163.862V308.517H170.759V301.621Z" fill="#363636"/>
<path d="M191.448 301.621H184.552V308.517H191.448V301.621Z" fill="#363636"/>
<path d="M198.345 301.621H191.448V308.517H198.345V301.621Z" fill="#363636"/>
<path d="M205.241 301.621H198.345V308.517H205.241V301.621Z" fill="#363636"/>
<path d="M225.931 301.621H219.034V308.517H225.931V301.621Z" fill="#363636"/>
<path d="M232.828 301.621H225.931V308.517H232.828V301.621Z" fill="#363636"/>
<path d="M260.414 301.621H253.517V308.517H260.414V301.621Z" fill="#363636"/>
<path d="M156.966 308.517H150.069V315.414H156.966V308.517Z" fill="#363636"/>
<path d="M163.862 308.517H156.966V315.414H163.862V308.517Z" fill="#363636"/>
<path d="M170.759 308.517H163.862V315.414H170.759V308.517Z" fill="#363636"/>
<path d="M184.552 308.517H177.655V315.414H184.552V308.517Z" fill="#363636"/>
<path d="M191.448 308.517H184.552V315.414H191.448V308.517Z" fill="#363636"/>
<path d="M212.138 308.517H205.241V315.414H212.138V308.517Z" fill="#363636"/>
<path d="M219.034 308.517H212.138V315.414H219.034V308.517Z" fill="#363636"/>
<path d="M225.931 308.517H219.034V315.414H225.931V308.517Z" fill="#363636"/>
<path d="M232.828 308.517H225.931V315.414H232.828V308.517Z" fill="#363636"/>
<path d="M239.724 308.517H232.828V315.414H239.724V308.517Z" fill="#363636"/>
<path d="M246.621 308.517H239.724V315.414H246.621V308.517Z" fill="#363636"/>
<path d="M253.517 308.517H246.621V315.414H253.517V308.517Z" fill="#363636"/>
<path d="M260.414 308.517H253.517V315.414H260.414V308.517Z" fill="#363636"/>
<path d="M267.31 308.517H260.414V315.414H267.31V308.517Z" fill="#363636"/>
<path d="M163.862 315.414H156.966V322.31H163.862V315.414Z" fill="#363636"/>
<path d="M177.655 315.414H170.759V322.31H177.655V315.414Z" fill="#363636"/>
<path d="M184.552 315.414H177.655V322.31H184.552V315.414Z" fill="#363636"/>
<path d="M191.448 315.414H184.552V322.31H191.448V315.414Z" fill="#363636"/>
<path d="M212.138 315.414H205.241V322.31H212.138V315.414Z" fill="#363636"/>
<path d="M219.034 315.414H212.138V322.31H219.034V315.414Z" fill="#363636"/>
<path d="M225.931 315.414H219.034V322.31H225.931V315.414Z" fill="#363636"/>
<path d="M239.724 315.414H232.828V322.31H239.724V315.414Z" fill="#363636"/>
<path d="M253.517 315.414H246.621V322.31H253.517V315.414Z" fill="#363636"/>
<path d="M267.31 315.414H260.414V322.31H267.31V315.414Z" fill="#363636"/>
<path d="M274.207 315.414H267.31V322.31H274.207V315.414Z" fill="#363636"/>
<path d="M281.103 315.414H274.207V322.31H281.103V315.414Z" fill="#363636"/>
<path d="M156.966 322.31H150.069V329.207H156.966V322.31Z" fill="#363636"/>
<path d="M163.862 322.31H156.966V329.207H163.862V322.31Z" fill="#363636"/>
<path d="M170.759 322.31H163.862V329.207H170.759V322.31Z" fill="#363636"/>
<path d="M198.345 322.31H191.448V329.207H198.345V322.31Z" fill="#363636"/>
<path d="M205.241 322.31H198.345V329.207H205.241V322.31Z" fill="#363636"/>
<path d="M212.138 322.31H205.241V329.207H212.138V322.31Z" fill="#363636"/>
<path d="M232.828 322.31H225.931V329.207H232.828V322.31Z" fill="#363636"/>
<path d="M246.621 322.31H239.724V329.207H246.621V322.31Z" fill="#363636"/>
<path d="M253.517 322.31H246.621V329.207H253.517V322.31Z" fill="#363636"/>
<path d="M260.414 322.31H253.517V329.207H260.414V322.31Z" fill="#363636"/>
<path d="M267.31 322.31H260.414V329.207H267.31V322.31Z" fill="#363636"/>
<path d="M274.207 322.31H267.31V329.207H274.207V322.31Z" fill="#363636"/>
<path d="M281.103 322.31H274.207V329.207H281.103V322.31Z" fill="#363636"/>
<path d="M184.552 329.207H177.655V336.103H184.552V329.207Z" fill="#363636"/>
<path d="M205.241 329.207H198.345V336.103H205.241V329.207Z" fill="#363636"/>
<path d="M212.138 329.207H205.241V336.103H212.138V329.207Z" fill="#363636"/>
<path d="M219.034 329.207H212.138V336.103H219.034V329.207Z" fill="#363636"/>
<path d="M246.621 329.207H239.724V336.103H246.621V329.207Z" fill="#363636"/>
<path d="M253.517 329.207H246.621V336.103H253.517V329.207Z" fill="#363636"/>
<path d="M267.31 329.207H260.414V336.103H267.31V329.207Z" fill="#363636"/>
<path d="M274.207 329.207H267.31V336.103H274.207V329.207Z" fill="#363636"/>
<path d="M288 329.207H281.103V336.103H288V329.207Z" fill="#363636"/>
<path d="M150.069 336.103H143.172V343H150.069V336.103Z" fill="#363636"/>
<path d="M163.862 336.103H156.966V343H163.862V336.103Z" fill="#363636"/>
<path d="M177.655 336.103H170.759V343H177.655V336.103Z" fill="#363636"/>
<path d="M184.552 336.103H177.655V343H184.552V336.103Z" fill="#363636"/>
<path d="M191.448 336.103H184.552V343H191.448V336.103Z" fill="#363636"/>
<path d="M198.345 336.103H191.448V343H198.345V336.103Z" fill="#363636"/>
<path d="M225.931 336.103H219.034V343H225.931V336.103Z" fill="#363636"/>
<path d="M239.724 336.103H232.828V343H239.724V336.103Z" fill="#363636"/>
<path d="M246.621 336.103H239.724V343H246.621V336.103Z" fill="#363636"/>
<path d="M253.517 336.103H246.621V343H253.517V336.103Z" fill="#363636"/>
<path d="M260.414 336.103H253.517V343H260.414V336.103Z" fill="#363636"/>
<path d="M267.31 336.103H260.414V343H267.31V336.103Z" fill="#363636"/>
<path d="M274.207 336.103H267.31V343H274.207V336.103Z" fill="#363636"/>
<path d="M96 143C91.5817 143 88 146.582 88 151V183.276C88 187.694 91.5817 191.276 96 191.276H128.276C132.694 191.276 136.276 187.694 136.276 183.276V151C136.276 146.582 132.694 143 128.276 143H96ZM129.034 180.034C129.034 182.244 127.244 184.034 125.034 184.034H99.2414C97.0322 184.034 95.2414 182.244 95.2414 180.034V154.241C95.2414 152.032 97.0322 150.241 99.2414 150.241H125.034C127.244 150.241 129.034 152.032 129.034 154.241V180.034Z" fill="#363636"/>
<path d="M247.724 143C243.306 143 239.724 146.582 239.724 151V183.276C239.724 187.694 243.306 191.276 247.724 191.276H280C284.418 191.276 288 187.694 288 183.276V151C288 146.582 284.418 143 280 143H247.724ZM280.759 180.034C280.759 182.244 278.968 184.034 276.759 184.034H250.966C248.756 184.034 246.966 182.244 246.966 180.034V154.241C246.966 152.032 248.756 150.241 250.966 150.241H276.759C278.968 150.241 280.759 152.032 280.759 154.241V180.034Z" fill="#363636"/>
<path d="M96 294.724C91.5817 294.724 88 298.306 88 302.724V335C88 339.418 91.5817 343 96 343H128.276C132.694 343 136.276 339.418 136.276 335V302.724C136.276 298.306 132.694 294.724 128.276 294.724H96ZM129.034 331.759C129.034 333.968 127.244 335.759 125.034 335.759H99.2414C97.0322 335.759 95.2414 333.968 95.2414 331.759V305.966C95.2414 303.756 97.0322 301.966 99.2414 301.966H125.034C127.244 301.966 129.034 303.756 129.034 305.966V331.759Z" fill="#363636"/>
<path d="M122.483 159.793C122.483 158.136 121.14 156.793 119.483 156.793H104.793C103.136 156.793 101.793 158.136 101.793 159.793V174.483C101.793 176.14 103.136 177.483 104.793 177.483H119.483C121.14 177.483 122.483 176.14 122.483 174.483V159.793Z" fill="#363636"/>
<path d="M274.207 159.793C274.207 158.136 272.864 156.793 271.207 156.793H256.517C254.86 156.793 253.517 158.136 253.517 159.793V174.483C253.517 176.14 254.86 177.483 256.517 177.483H271.207C272.864 177.483 274.207 176.14 274.207 174.483V159.793Z" fill="#363636"/>
<path d="M122.483 311.517C122.483 309.86 121.14 308.517 119.483 308.517H104.793C103.136 308.517 101.793 309.86 101.793 311.517V326.207C101.793 327.864 103.136 329.207 104.793 329.207H119.483C121.14 329.207 122.483 327.864 122.483 326.207V311.517Z" fill="#363636"/>
<line x1="41.5" y1="441.5" x2="334.5" y2="441.5" stroke="#363636" stroke-linecap="round" stroke-dasharray="1 6"/>
<path d="M38 2.5H338C349.322 2.5 358.5 11.6782 358.5 23V47.5H17.5V23C17.5 11.6782 26.6782 2.5 38 2.5Z" fill="#F2F2F4"/>
<path d="M38 2.5H338C349.322 2.5 358.5 11.6782 358.5 23V47.5H17.5V23C17.5 11.6782 26.6782 2.5 38 2.5Z" stroke="white"/>
<rect x="212" y="96" width="71" height="29" rx="7" fill="#E1E1E1"/>
<path d="M227.428 117.773C228.47 117.773 229.385 117.598 230.173 117.246C230.96 116.888 231.576 116.393 232.018 115.762C232.468 115.124 232.692 114.395 232.692 113.574V113.555C232.692 112.578 232.376 111.797 231.745 111.211C231.113 110.618 230.277 110.273 229.235 110.176V110.127C229.802 110.01 230.306 109.805 230.749 109.512C231.198 109.219 231.55 108.851 231.803 108.408C232.064 107.959 232.194 107.445 232.194 106.865V106.846C232.194 106.11 231.996 105.465 231.598 104.912C231.208 104.352 230.651 103.916 229.928 103.604C229.212 103.291 228.369 103.135 227.399 103.135C226.455 103.135 225.622 103.301 224.899 103.633C224.183 103.965 223.61 104.434 223.18 105.039C222.751 105.638 222.5 106.344 222.428 107.158L222.419 107.266H224.753L224.762 107.178C224.815 106.755 224.951 106.39 225.173 106.084C225.4 105.778 225.706 105.544 226.091 105.381C226.475 105.212 226.911 105.127 227.399 105.127C227.907 105.127 228.337 105.208 228.688 105.371C229.046 105.534 229.316 105.768 229.499 106.074C229.688 106.38 229.782 106.748 229.782 107.178V107.197C229.782 107.607 229.675 107.972 229.46 108.291C229.245 108.604 228.942 108.851 228.552 109.033C228.161 109.215 227.708 109.307 227.194 109.307H225.573V111.182H227.243C228.148 111.182 228.854 111.38 229.362 111.777C229.876 112.174 230.134 112.744 230.134 113.486V113.506C230.134 113.936 230.02 114.316 229.792 114.648C229.57 114.98 229.255 115.241 228.844 115.43C228.441 115.618 227.966 115.713 227.419 115.713C226.872 115.713 226.39 115.628 225.973 115.459C225.557 115.283 225.225 115.042 224.977 114.736C224.73 114.43 224.583 114.079 224.538 113.682L224.528 113.584H222.116L222.126 113.701C222.197 114.502 222.455 115.208 222.897 115.82C223.346 116.432 223.955 116.911 224.723 117.256C225.498 117.601 226.4 117.773 227.428 117.773ZM235.475 117.5H240.729C242.135 117.5 243.33 117.223 244.313 116.67C245.303 116.11 246.058 115.303 246.579 114.248C247.106 113.187 247.37 111.908 247.37 110.41V110.391C247.37 108.913 247.106 107.653 246.579 106.611C246.058 105.57 245.303 104.775 244.313 104.229C243.324 103.682 242.129 103.408 240.729 103.408H235.475V117.5ZM237.995 115.381V105.527H240.407C241.331 105.527 242.122 105.719 242.78 106.104C243.438 106.488 243.939 107.044 244.284 107.773C244.629 108.503 244.802 109.385 244.802 110.42V110.439C244.802 111.494 244.629 112.389 244.284 113.125C243.945 113.861 243.447 114.421 242.79 114.805C242.139 115.189 241.344 115.381 240.407 115.381H237.995Z" fill="#363636"/>
<path d="M263.889 112.875H258.113L257.588 111.291H262.806V109.708H257.061L256.305 107.427V102.188C256.305 101.532 255.821 101 255.221 101H253.777C253.179 101 252.694 101.531 252.694 102.188V108.125L255.584 116.834V120H257.027V116.834H261.361V120H262.805V116.834H263.889C264.886 116.834 265.694 115.948 265.694 114.854C265.694 113.761 264.886 112.875 263.889 112.875Z" fill="#2C2C2E"/>
<path d="M268.318 105.721C268.318 105.275 268.857 105.052 269.172 105.367L273.953 110.148C274.148 110.343 274.148 110.66 273.953 110.855L269.172 115.636C268.857 115.951 268.318 115.728 268.318 115.282V105.721Z" fill="#2C2C2E"/>
<rect x="93" y="96" width="113" height="29" rx="7" fill="#06D3C4"/>
<path d="M123.507 106.16C123.133 105.653 122.647 105.287 122.047 105.06C121.447 104.82 120.86 104.7 120.287 104.7C119.553 104.7 118.887 104.833 118.287 105.1C117.687 105.367 117.167 105.733 116.727 106.2C116.3 106.667 115.967 107.213 115.727 107.84C115.5 108.467 115.387 109.147 115.387 109.88C115.387 110.653 115.5 111.36 115.727 112C115.953 112.64 116.273 113.193 116.687 113.66C117.113 114.113 117.62 114.467 118.207 114.72C118.793 114.973 119.453 115.1 120.187 115.1C120.947 115.1 121.62 114.953 122.207 114.66C122.793 114.353 123.267 113.953 123.627 113.46L125.647 114.88C125.02 115.667 124.253 116.28 123.347 116.72C122.44 117.147 121.38 117.36 120.167 117.36C119.06 117.36 118.04 117.18 117.107 116.82C116.187 116.447 115.393 115.933 114.727 115.28C114.06 114.613 113.54 113.827 113.167 112.92C112.793 112 112.607 110.987 112.607 109.88C112.607 108.747 112.8 107.727 113.187 106.82C113.587 105.9 114.127 105.12 114.807 104.48C115.5 103.84 116.313 103.347 117.247 103C118.18 102.653 119.193 102.48 120.287 102.48C120.74 102.48 121.213 102.527 121.707 102.62C122.2 102.7 122.673 102.833 123.127 103.02C123.58 103.193 124.007 103.413 124.407 103.68C124.807 103.947 125.147 104.267 125.427 104.64L123.507 106.16ZM126.298 112.16C126.298 111.4 126.431 110.713 126.698 110.1C126.978 109.473 127.351 108.94 127.818 108.5C128.285 108.06 128.838 107.72 129.478 107.48C130.118 107.24 130.798 107.12 131.518 107.12C132.238 107.12 132.918 107.24 133.558 107.48C134.198 107.72 134.751 108.06 135.218 108.5C135.685 108.94 136.051 109.473 136.318 110.1C136.598 110.713 136.738 111.4 136.738 112.16C136.738 112.92 136.598 113.613 136.318 114.24C136.051 114.867 135.685 115.407 135.218 115.86C134.751 116.3 134.198 116.647 133.558 116.9C132.918 117.153 132.238 117.28 131.518 117.28C130.798 117.28 130.118 117.153 129.478 116.9C128.838 116.647 128.285 116.3 127.818 115.86C127.351 115.407 126.978 114.867 126.698 114.24C126.431 113.613 126.298 112.92 126.298 112.16ZM128.738 112.16C128.738 112.533 128.791 112.907 128.898 113.28C129.018 113.653 129.191 113.987 129.418 114.28C129.645 114.573 129.931 114.813 130.278 115C130.625 115.187 131.038 115.28 131.518 115.28C131.998 115.28 132.411 115.187 132.758 115C133.105 114.813 133.391 114.573 133.618 114.28C133.845 113.987 134.011 113.653 134.118 113.28C134.238 112.907 134.298 112.533 134.298 112.16C134.298 111.787 134.238 111.42 134.118 111.06C134.011 110.687 133.845 110.353 133.618 110.06C133.391 109.767 133.105 109.533 132.758 109.36C132.411 109.173 131.998 109.08 131.518 109.08C131.038 109.08 130.625 109.173 130.278 109.36C129.931 109.533 129.645 109.767 129.418 110.06C129.191 110.353 129.018 110.687 128.898 111.06C128.791 111.42 128.738 111.787 128.738 112.16ZM145.025 115.78H144.965C144.725 116.207 144.338 116.56 143.805 116.84C143.272 117.107 142.665 117.24 141.985 117.24C141.598 117.24 141.192 117.187 140.765 117.08C140.352 116.987 139.965 116.827 139.605 116.6C139.258 116.36 138.965 116.053 138.725 115.68C138.498 115.293 138.385 114.82 138.385 114.26C138.385 113.54 138.585 112.967 138.985 112.54C139.398 112.113 139.925 111.787 140.565 111.56C141.205 111.333 141.912 111.187 142.685 111.12C143.472 111.04 144.238 111 144.985 111V110.76C144.985 110.16 144.765 109.72 144.325 109.44C143.898 109.147 143.385 109 142.785 109C142.278 109 141.792 109.107 141.325 109.32C140.858 109.533 140.472 109.793 140.165 110.1L138.925 108.64C139.472 108.133 140.098 107.753 140.805 107.5C141.525 107.247 142.252 107.12 142.985 107.12C143.838 107.12 144.538 107.24 145.085 107.48C145.645 107.72 146.085 108.033 146.405 108.42C146.725 108.807 146.945 109.24 147.065 109.72C147.198 110.2 147.265 110.68 147.265 111.16V117H145.025V115.78ZM144.985 112.62H144.445C144.058 112.62 143.652 112.64 143.225 112.68C142.798 112.707 142.405 112.78 142.045 112.9C141.685 113.007 141.385 113.167 141.145 113.38C140.905 113.58 140.785 113.86 140.785 114.22C140.785 114.447 140.832 114.64 140.925 114.8C141.032 114.947 141.165 115.067 141.325 115.16C141.485 115.253 141.665 115.32 141.865 115.36C142.065 115.4 142.265 115.42 142.465 115.42C143.292 115.42 143.918 115.2 144.345 114.76C144.772 114.32 144.985 113.72 144.985 112.96V112.62ZM156.621 110.06C156.434 109.793 156.154 109.573 155.781 109.4C155.408 109.213 155.028 109.12 154.641 109.12C154.201 109.12 153.814 109.213 153.481 109.4C153.148 109.573 152.868 109.807 152.641 110.1C152.428 110.393 152.268 110.727 152.161 111.1C152.054 111.46 152.001 111.827 152.001 112.2C152.001 112.573 152.054 112.947 152.161 113.32C152.281 113.68 152.454 114.007 152.681 114.3C152.908 114.593 153.188 114.833 153.521 115.02C153.868 115.193 154.268 115.28 154.721 115.28C155.094 115.28 155.468 115.207 155.841 115.06C156.214 114.913 156.514 114.7 156.741 114.42L158.241 115.94C157.841 116.367 157.328 116.7 156.701 116.94C156.088 117.167 155.421 117.28 154.701 117.28C153.994 117.28 153.321 117.167 152.681 116.94C152.054 116.713 151.501 116.38 151.021 115.94C150.554 115.5 150.181 114.967 149.901 114.34C149.634 113.713 149.501 113 149.501 112.2C149.501 111.427 149.634 110.727 149.901 110.1C150.181 109.473 150.554 108.94 151.021 108.5C151.488 108.06 152.028 107.72 152.641 107.48C153.268 107.24 153.934 107.12 154.641 107.12C155.348 107.12 156.028 107.253 156.681 107.52C157.348 107.787 157.874 108.153 158.261 108.62L156.621 110.06ZM165.167 107.12C165.793 107.12 166.327 107.233 166.767 107.46C167.22 107.673 167.587 107.96 167.867 108.32C168.16 108.68 168.373 109.093 168.507 109.56C168.64 110.027 168.707 110.507 168.707 111V117H166.307V111.72C166.307 111.44 166.287 111.153 166.247 110.86C166.207 110.553 166.12 110.28 165.987 110.04C165.867 109.787 165.687 109.58 165.447 109.42C165.22 109.26 164.913 109.18 164.527 109.18C164.14 109.18 163.807 109.253 163.527 109.4C163.247 109.547 163.013 109.747 162.827 110C162.64 110.24 162.5 110.513 162.407 110.82C162.313 111.127 162.267 111.44 162.267 111.76V117H159.867V101.88H162.267V108.74H162.307C162.4 108.54 162.533 108.347 162.707 108.16C162.893 107.96 163.107 107.787 163.347 107.64C163.587 107.48 163.86 107.353 164.167 107.26C164.473 107.167 164.807 107.12 165.167 107.12ZM176.446 114.8L181.906 109.44C182.346 109.013 182.693 108.587 182.946 108.16C183.213 107.72 183.346 107.22 183.346 106.66C183.346 105.993 183.126 105.467 182.686 105.08C182.26 104.68 181.726 104.48 181.086 104.48C180.406 104.48 179.86 104.713 179.446 105.18C179.033 105.633 178.78 106.207 178.686 106.9L176.346 106.54C176.413 105.953 176.58 105.413 176.846 104.92C177.113 104.427 177.453 104 177.866 103.64C178.28 103.28 178.76 103 179.306 102.8C179.866 102.587 180.473 102.48 181.126 102.48C181.74 102.48 182.326 102.567 182.886 102.74C183.46 102.913 183.966 103.18 184.406 103.54C184.846 103.887 185.193 104.32 185.446 104.84C185.713 105.347 185.846 105.94 185.846 106.62C185.846 107.073 185.786 107.5 185.666 107.9C185.546 108.287 185.38 108.653 185.166 109C184.966 109.347 184.726 109.68 184.446 110C184.18 110.307 183.886 110.607 183.566 110.9L179.486 114.8H185.866V117H176.446V114.8Z" fill="white"/>
<path d="M135.862 370H134.782V360.34H131.227V359.38H139.417V360.34H135.862V370ZM141.811 370H140.791V362.98H141.811V370ZM142.021 360.28C142.021 360.49 141.946 360.665 141.796 360.805C141.646 360.935 141.481 361 141.301 361C141.121 361 140.956 360.935 140.806 360.805C140.656 360.665 140.581 360.49 140.581 360.28C140.581 360.07 140.656 359.9 140.806 359.77C140.956 359.63 141.121 359.56 141.301 359.56C141.481 359.56 141.646 359.63 141.796 359.77C141.946 359.9 142.021 360.07 142.021 360.28ZM149.581 364.585C149.411 364.315 149.161 364.095 148.831 363.925C148.511 363.745 148.161 363.655 147.781 363.655C147.371 363.655 147.001 363.73 146.671 363.88C146.341 364.02 146.056 364.22 145.816 364.48C145.586 364.73 145.406 365.03 145.276 365.38C145.156 365.72 145.096 366.09 145.096 366.49C145.096 366.89 145.156 367.26 145.276 367.6C145.406 367.94 145.586 368.24 145.816 368.5C146.046 368.75 146.326 368.95 146.656 369.1C146.986 369.24 147.356 369.31 147.766 369.31C148.216 369.31 148.596 369.225 148.906 369.055C149.216 368.885 149.471 368.665 149.671 368.395L150.436 368.965C150.136 369.335 149.766 369.63 149.326 369.85C148.896 370.07 148.376 370.18 147.766 370.18C147.196 370.18 146.681 370.09 146.221 369.91C145.761 369.72 145.366 369.46 145.036 369.13C144.716 368.8 144.466 368.41 144.286 367.96C144.106 367.51 144.016 367.02 144.016 366.49C144.016 365.96 144.106 365.47 144.286 365.02C144.466 364.57 144.716 364.18 145.036 363.85C145.366 363.52 145.761 363.265 146.221 363.085C146.681 362.895 147.196 362.8 147.766 362.8C148.236 362.8 148.711 362.905 149.191 363.115C149.681 363.315 150.076 363.615 150.376 364.015L149.581 364.585ZM153.076 366.145H153.121L156.361 362.98H157.831L154.291 366.19L158.191 370H156.691L153.121 366.31H153.076V370H152.056V358.66H153.076V366.145ZM164.764 365.95C164.734 365.29 164.519 364.745 164.119 364.315C163.729 363.875 163.169 363.655 162.439 363.655C162.099 363.655 161.784 363.72 161.494 363.85C161.204 363.97 160.949 364.14 160.729 364.36C160.509 364.57 160.334 364.815 160.204 365.095C160.074 365.365 159.999 365.65 159.979 365.95H164.764ZM165.799 366.28C165.799 366.35 165.799 366.425 165.799 366.505C165.799 366.585 165.794 366.67 165.784 366.76H159.964C159.974 367.11 160.044 367.44 160.174 367.75C160.304 368.06 160.484 368.33 160.714 368.56C160.944 368.79 161.214 368.975 161.524 369.115C161.834 369.245 162.169 369.31 162.529 369.31C163.059 369.31 163.514 369.19 163.894 368.95C164.284 368.7 164.579 368.415 164.779 368.095L165.544 368.695C165.124 369.225 164.659 369.605 164.149 369.835C163.649 370.065 163.109 370.18 162.529 370.18C162.009 370.18 161.524 370.09 161.074 369.91C160.634 369.72 160.254 369.46 159.934 369.13C159.614 368.8 159.359 368.41 159.169 367.96C158.989 367.51 158.899 367.02 158.899 366.49C158.899 365.96 158.989 365.47 159.169 365.02C159.349 364.57 159.599 364.18 159.919 363.85C160.239 363.52 160.614 363.265 161.044 363.085C161.474 362.895 161.939 362.8 162.439 362.8C162.989 362.8 163.474 362.895 163.894 363.085C164.314 363.265 164.664 363.515 164.944 363.835C165.224 364.145 165.434 364.51 165.574 364.93C165.724 365.35 165.799 365.8 165.799 366.28ZM171.158 363.835H169.178V367.93C169.178 368.19 169.203 368.405 169.253 368.575C169.303 368.745 169.373 368.88 169.463 368.98C169.563 369.07 169.678 369.135 169.808 369.175C169.938 369.205 170.078 369.22 170.228 369.22C170.368 369.22 170.513 369.2 170.663 369.16C170.823 369.12 170.973 369.065 171.113 368.995L171.158 369.88C170.978 369.95 170.788 370 170.588 370.03C170.398 370.07 170.188 370.09 169.958 370.09C169.768 370.09 169.568 370.065 169.358 370.015C169.148 369.965 168.953 369.87 168.773 369.73C168.593 369.59 168.443 369.4 168.323 369.16C168.213 368.92 168.158 368.605 168.158 368.215V363.835H166.703V362.98H168.158V361H169.178V362.98H171.158V363.835ZM177.208 366.79H175.678V365.89H177.328L177.658 363.46H176.038V362.56H177.793L178.228 359.38H179.143L178.708 362.56H180.703L181.138 359.38H182.053L181.618 362.56H182.968V363.46H181.483L181.153 365.89H182.578V366.79H181.033L180.583 370H179.668L180.118 366.79H178.123L177.673 370H176.758L177.208 366.79ZM178.243 365.89H180.238L180.568 363.46H178.573L178.243 365.89ZM190.148 368.17H190.163L193.718 359.38H195.368V370H194.288V360.775H194.258L190.418 370H189.848L186.008 360.775H185.978V370H184.898V359.38H186.548L190.148 368.17ZM200.749 368.515H200.779L203.434 359.38H204.724L207.379 368.515H207.409L210.004 359.38H211.144L208.009 370H206.749L204.079 360.88H204.049L201.379 370H200.119L196.984 359.38H198.124L200.749 368.515ZM214.365 364.015L214.395 364.045C214.555 363.925 214.78 363.83 215.07 363.76C215.36 363.69 215.64 363.655 215.91 363.655C216.37 363.655 216.795 363.735 217.185 363.895C217.585 364.055 217.93 364.28 218.22 364.57C218.51 364.85 218.735 365.195 218.895 365.605C219.065 366.005 219.15 366.445 219.15 366.925C219.15 367.425 219.065 367.88 218.895 368.29C218.725 368.7 218.485 369.05 218.175 369.34C217.865 369.63 217.5 369.855 217.08 370.015C216.66 370.185 216.2 370.27 215.7 370.27C215.2 370.27 214.74 370.185 214.32 370.015C213.9 369.855 213.535 369.63 213.225 369.34C212.915 369.05 212.675 368.7 212.505 368.29C212.335 367.88 212.25 367.425 212.25 366.925C212.25 366.375 212.345 365.865 212.535 365.395C212.725 364.925 212.95 364.475 213.21 364.045L216.105 359.38H217.35L214.365 364.015ZM213.33 366.925C213.33 367.275 213.385 367.6 213.495 367.9C213.615 368.19 213.78 368.445 213.99 368.665C214.2 368.875 214.45 369.045 214.74 369.175C215.03 369.295 215.35 369.355 215.7 369.355C216.05 369.355 216.37 369.295 216.66 369.175C216.95 369.045 217.2 368.875 217.41 368.665C217.62 368.445 217.78 368.19 217.89 367.9C218.01 367.6 218.07 367.275 218.07 366.925C218.07 366.585 218.015 366.27 217.905 365.98C217.795 365.68 217.635 365.425 217.425 365.215C217.225 364.995 216.975 364.825 216.675 364.705C216.385 364.585 216.06 364.525 215.7 364.525C215.34 364.525 215.01 364.585 214.71 364.705C214.42 364.825 214.17 364.995 213.96 365.215C213.76 365.425 213.605 365.68 213.495 365.98C213.385 366.27 213.33 366.585 213.33 366.925ZM222.541 369.04H227.491V370H221.461V359.38H222.541V369.04ZM233.442 364.375C234.022 364.545 234.502 364.88 234.882 365.38C235.262 365.88 235.452 366.49 235.452 367.21C235.452 367.68 235.357 368.105 235.167 368.485C234.987 368.855 234.742 369.175 234.432 369.445C234.122 369.705 233.757 369.905 233.337 370.045C232.927 370.195 232.497 370.27 232.047 370.27C231.597 370.27 231.162 370.195 230.742 370.045C230.332 369.905 229.972 369.705 229.662 369.445C229.352 369.175 229.102 368.855 228.912 368.485C228.732 368.105 228.642 367.68 228.642 367.21C228.642 366.85 228.692 366.52 228.792 366.22C228.892 365.91 229.032 365.635 229.212 365.395C229.392 365.145 229.602 364.935 229.842 364.765C230.092 364.595 230.362 364.465 230.652 364.375V364.345C230.412 364.265 230.192 364.15 229.992 364C229.802 363.84 229.637 363.655 229.497 363.445C229.357 363.225 229.247 362.99 229.167 362.74C229.087 362.48 229.047 362.215 229.047 361.945C229.047 361.515 229.127 361.125 229.287 360.775C229.447 360.425 229.662 360.13 229.932 359.89C230.212 359.64 230.532 359.45 230.892 359.32C231.252 359.18 231.637 359.11 232.047 359.11C232.447 359.11 232.827 359.18 233.187 359.32C233.557 359.45 233.877 359.64 234.147 359.89C234.427 360.13 234.647 360.425 234.807 360.775C234.967 361.125 235.047 361.515 235.047 361.945C235.047 362.215 235.007 362.48 234.927 362.74C234.847 362.99 234.737 363.225 234.597 363.445C234.457 363.655 234.287 363.84 234.087 364C233.897 364.15 233.682 364.265 233.442 364.345V364.375ZM230.097 362.005C230.097 362.285 230.147 362.54 230.247 362.77C230.347 363 230.487 363.2 230.667 363.37C230.847 363.54 231.052 363.675 231.282 363.775C231.522 363.865 231.777 363.91 232.047 363.91C232.317 363.91 232.567 363.865 232.797 363.775C233.037 363.675 233.247 363.54 233.427 363.37C233.607 363.2 233.747 363 233.847 362.77C233.947 362.54 233.997 362.285 233.997 362.005C233.997 361.725 233.947 361.465 233.847 361.225C233.747 360.975 233.607 360.765 233.427 360.595C233.257 360.415 233.052 360.275 232.812 360.175C232.582 360.075 232.327 360.025 232.047 360.025C231.767 360.025 231.507 360.075 231.267 360.175C231.037 360.275 230.832 360.415 230.652 360.595C230.482 360.765 230.347 360.975 230.247 361.225C230.147 361.465 230.097 361.725 230.097 362.005ZM229.722 367.09C229.722 367.41 229.777 367.71 229.887 367.99C229.997 368.27 230.152 368.51 230.352 368.71C230.562 368.91 230.807 369.07 231.087 369.19C231.377 369.3 231.697 369.355 232.047 369.355C232.397 369.355 232.712 369.3 232.992 369.19C233.282 369.07 233.527 368.91 233.727 368.71C233.937 368.51 234.097 368.27 234.207 367.99C234.317 367.71 234.372 367.41 234.372 367.09C234.372 366.77 234.317 366.475 234.207 366.205C234.097 365.935 233.937 365.7 233.727 365.5C233.527 365.3 233.282 365.145 232.992 365.035C232.712 364.925 232.397 364.87 232.047 364.87C231.697 364.87 231.377 364.925 231.087 365.035C230.807 365.145 230.562 365.3 230.352 365.5C230.152 365.7 229.997 365.935 229.887 366.205C229.777 366.475 229.722 366.77 229.722 367.09ZM241.213 370H240.133V360.34H236.578V359.38H244.768V360.34H241.213V370Z" fill="#363636"/>
<path d="M178.271 503.024C178.271 503.932 178.512 504.624 178.993 505.1C179.475 505.581 180.175 505.822 181.093 505.822H197.346C198.281 505.822 199.076 505.659 199.729 505.332C200.382 505.011 200.877 504.574 201.214 504.021C201.557 503.467 201.729 502.847 201.729 502.161C201.729 501.547 201.585 500.919 201.297 500.277C201.01 499.635 200.575 499.029 199.994 498.459L196.566 495.056C196.007 494.508 195.487 494.051 195.005 493.686C194.529 493.321 194.054 493.03 193.578 492.814C193.102 492.593 192.598 492.435 192.067 492.341C191.536 492.247 190.944 492.2 190.291 492.2H181.093C180.175 492.2 179.475 492.441 178.993 492.922C178.512 493.398 178.271 494.09 178.271 494.998V503.024ZM187.609 499.032V496.11C187.609 495.617 187.856 495.371 188.348 495.371H190.241C190.849 495.371 191.375 495.396 191.818 495.446C192.266 495.49 192.659 495.565 192.997 495.67C193.334 495.775 193.644 495.922 193.926 496.11C194.214 496.298 194.505 496.536 194.798 496.824L196.566 498.583C196.726 498.744 196.809 498.916 196.815 499.098C196.826 499.281 196.779 499.436 196.674 499.563C196.569 499.69 196.428 499.754 196.25 499.754H188.348C188.116 499.754 187.933 499.69 187.8 499.563C187.673 499.43 187.609 499.253 187.609 499.032Z" fill="#363636"/>
<path d="M47.3589 481H46.1349V470.477L43.9589 472.33L43.2109 471.48L46.2709 468.964H47.3589V481ZM56.0643 468.658C56.8123 468.658 57.4356 468.845 57.9343 469.219C58.4443 469.582 58.8523 470.063 59.1583 470.664C59.4643 471.253 59.6796 471.928 59.8043 472.687C59.9403 473.446 60.0083 474.217 60.0083 474.999C60.0083 475.781 59.9403 476.552 59.8043 477.311C59.6796 478.059 59.4643 478.733 59.1583 479.334C58.8523 479.923 58.4443 480.399 57.9343 480.762C57.4356 481.125 56.8123 481.306 56.0643 481.306C55.3049 481.306 54.6703 481.125 54.1603 480.762C53.6616 480.399 53.2593 479.923 52.9533 479.334C52.6473 478.733 52.4319 478.059 52.3073 477.311C52.1826 476.552 52.1203 475.781 52.1203 474.999C52.1203 474.217 52.1826 473.446 52.3073 472.687C52.4319 471.928 52.6473 471.253 52.9533 470.664C53.2593 470.063 53.6616 469.582 54.1603 469.219C54.6703 468.845 55.3049 468.658 56.0643 468.658ZM56.0643 469.695C55.5316 469.695 55.0896 469.859 54.7383 470.188C54.3869 470.517 54.1093 470.936 53.9053 471.446C53.7013 471.956 53.5596 472.528 53.4803 473.163C53.4009 473.786 53.3613 474.398 53.3613 474.999C53.3613 475.6 53.4009 476.212 53.4803 476.835C53.5596 477.458 53.7013 478.025 53.9053 478.535C54.1093 479.034 54.3869 479.447 54.7383 479.776C55.0896 480.093 55.5316 480.252 56.0643 480.252C56.5856 480.252 57.0219 480.093 57.3733 479.776C57.7246 479.447 58.0023 479.034 58.2063 478.535C58.4103 478.025 58.5519 477.458 58.6313 476.835C58.7219 476.212 58.7673 475.6 58.7673 474.999C58.7673 474.398 58.7219 473.786 58.6313 473.163C58.5519 472.528 58.4103 471.956 58.2063 471.446C58.0023 470.936 57.7246 470.517 57.3733 470.188C57.0219 469.859 56.5856 469.695 56.0643 469.695ZM64.4636 473.86C64.4636 474.098 64.3786 474.313 64.2086 474.506C64.0386 474.687 63.8176 474.778 63.5456 474.778C63.2736 474.778 63.0526 474.687 62.8826 474.506C62.7126 474.313 62.6276 474.098 62.6276 473.86C62.6276 473.622 62.7126 473.412 62.8826 473.231C63.0526 473.038 63.2736 472.942 63.5456 472.942C63.8176 472.942 64.0386 473.038 64.2086 473.231C64.3786 473.412 64.4636 473.622 64.4636 473.86ZM64.4636 480.184C64.4636 480.422 64.3786 480.637 64.2086 480.83C64.0386 481.011 63.8176 481.102 63.5456 481.102C63.2736 481.102 63.0526 481.011 62.8826 480.83C62.7126 480.637 62.6276 480.422 62.6276 480.184C62.6276 479.946 62.7126 479.736 62.8826 479.555C63.0526 479.362 63.2736 479.266 63.5456 479.266C63.8176 479.266 64.0386 479.362 64.2086 479.555C64.3786 479.736 64.4636 479.946 64.4636 480.184ZM69.7303 474.166H70.2573C70.6426 474.166 71.0053 474.126 71.3453 474.047C71.6853 473.968 71.98 473.843 72.2293 473.673C72.49 473.492 72.694 473.259 72.8413 472.976C72.9886 472.693 73.0623 472.353 73.0623 471.956C73.0623 471.616 73 471.31 72.8753 471.038C72.7506 470.755 72.575 470.517 72.3483 470.324C72.133 470.12 71.878 469.967 71.5833 469.865C71.3 469.752 70.9996 469.695 70.6823 469.695C70.1723 469.695 69.719 469.814 69.3223 470.052C68.937 470.29 68.6253 470.641 68.3873 471.106L67.3503 470.562C67.7243 469.916 68.2003 469.44 68.7783 469.134C69.3563 468.817 70.0136 468.658 70.7503 468.658C71.2263 468.658 71.674 468.732 72.0933 468.879C72.524 469.015 72.898 469.219 73.2153 469.491C73.544 469.763 73.799 470.103 73.9803 470.511C74.173 470.908 74.2693 471.367 74.2693 471.888C74.2693 472.602 74.071 473.203 73.6743 473.69C73.2776 474.166 72.779 474.483 72.1783 474.642V474.676C72.8696 474.823 73.4476 475.158 73.9123 475.679C74.377 476.189 74.6093 476.852 74.6093 477.668C74.6093 478.246 74.5016 478.762 74.2863 479.215C74.0823 479.657 73.8046 480.037 73.4533 480.354C73.102 480.66 72.6883 480.892 72.2123 481.051C71.7476 481.221 71.2546 481.306 70.7333 481.306C69.8493 481.306 69.0786 481.096 68.4213 480.677C67.764 480.246 67.2653 479.634 66.9253 478.841L68.0813 478.416C68.2853 478.994 68.6253 479.447 69.1013 479.776C69.5773 480.093 70.1213 480.252 70.7333 480.252C71.0733 480.252 71.402 480.195 71.7193 480.082C72.048 479.957 72.3313 479.787 72.5693 479.572C72.8186 479.345 73.017 479.073 73.1643 478.756C73.3116 478.439 73.3853 478.076 73.3853 477.668C73.3853 477.215 73.2946 476.835 73.1133 476.529C72.9433 476.212 72.711 475.957 72.4163 475.764C72.1216 475.571 71.7873 475.435 71.4133 475.356C71.0393 475.265 70.654 475.22 70.2573 475.22H69.7303V474.166ZM80.8836 468.658C81.6316 468.658 82.2549 468.845 82.7536 469.219C83.2636 469.582 83.6716 470.063 83.9776 470.664C84.2836 471.253 84.4989 471.928 84.6236 472.687C84.7596 473.446 84.8276 474.217 84.8276 474.999C84.8276 475.781 84.7596 476.552 84.6236 477.311C84.4989 478.059 84.2836 478.733 83.9776 479.334C83.6716 479.923 83.2636 480.399 82.7536 480.762C82.2549 481.125 81.6316 481.306 80.8836 481.306C80.1243 481.306 79.4896 481.125 78.9796 480.762C78.4809 480.399 78.0786 479.923 77.7726 479.334C77.4666 478.733 77.2513 478.059 77.1266 477.311C77.0019 476.552 76.9396 475.781 76.9396 474.999C76.9396 474.217 77.0019 473.446 77.1266 472.687C77.2513 471.928 77.4666 471.253 77.7726 470.664C78.0786 470.063 78.4809 469.582 78.9796 469.219C79.4896 468.845 80.1243 468.658 80.8836 468.658ZM80.8836 469.695C80.3509 469.695 79.9089 469.859 79.5576 470.188C79.2063 470.517 78.9286 470.936 78.7246 471.446C78.5206 471.956 78.3789 472.528 78.2996 473.163C78.2203 473.786 78.1806 474.398 78.1806 474.999C78.1806 475.6 78.2203 476.212 78.2996 476.835C78.3789 477.458 78.5206 478.025 78.7246 478.535C78.9286 479.034 79.2063 479.447 79.5576 479.776C79.9089 480.093 80.3509 480.252 80.8836 480.252C81.4049 480.252 81.8413 480.093 82.1926 479.776C82.5439 479.447 82.8216 479.034 83.0256 478.535C83.2296 478.025 83.3713 477.458 83.4506 476.835C83.5413 476.212 83.5866 475.6 83.5866 474.999C83.5866 474.398 83.5413 473.786 83.4506 473.163C83.3713 472.528 83.2296 471.956 83.0256 471.446C82.8216 470.936 82.5439 470.517 82.1926 470.188C81.8413 469.859 81.4049 469.695 80.8836 469.695ZM91.2791 481H89.9361L95.1381 468.964H96.3281L101.496 481H100.136L98.8101 477.838H92.5881L91.2791 481ZM93.0471 476.716H98.3511L95.6991 470.324L93.0471 476.716ZM109.217 478.926H109.234L113.263 468.964H115.133V481H113.909V470.545H113.875L109.523 481H108.877L104.525 470.545H104.491V481H103.267V468.964H105.137L109.217 478.926Z" fill="#363636"/>
<path d="M45.6391 490.176H49.1671V506.864H57.5951V510H45.6391V490.176ZM55.972 490.176H59.92L65.38 505.436H65.492L71.008 490.176H74.816L66.864 510H63.812L55.972 490.176Z" fill="#363636"/>
<path d="M45.781 531.04H50.731V532H44.701V521.38H45.781V531.04ZM56.7125 527.47C56.7125 526.86 56.5525 526.405 56.2325 526.105C55.9125 525.805 55.4475 525.655 54.8375 525.655C54.4175 525.655 54.0275 525.73 53.6675 525.88C53.3075 526.03 53.0025 526.23 52.7525 526.48L52.1825 525.805C52.4725 525.515 52.8525 525.275 53.3225 525.085C53.8025 524.895 54.3425 524.8 54.9425 524.8C55.3225 524.8 55.6775 524.855 56.0075 524.965C56.3375 525.065 56.6275 525.22 56.8775 525.43C57.1275 525.64 57.3225 525.905 57.4625 526.225C57.6025 526.545 57.6725 526.92 57.6725 527.35V530.425C57.6725 530.695 57.6825 530.975 57.7025 531.265C57.7225 531.555 57.7525 531.8 57.7925 532H56.8775C56.8475 531.83 56.8225 531.645 56.8025 531.445C56.7825 531.245 56.7725 531.05 56.7725 530.86H56.7425C56.4225 531.33 56.0575 531.67 55.6475 531.88C55.2475 532.08 54.7625 532.18 54.1925 532.18C53.9225 532.18 53.6425 532.14 53.3525 532.06C53.0725 531.99 52.8125 531.87 52.5725 531.7C52.3425 531.53 52.1475 531.31 51.9875 531.04C51.8375 530.77 51.7625 530.44 51.7625 530.05C51.7625 529.51 51.8975 529.085 52.1675 528.775C52.4475 528.455 52.8175 528.22 53.2775 528.07C53.7375 527.91 54.2625 527.81 54.8525 527.77C55.4525 527.72 56.0725 527.695 56.7125 527.695V527.47ZM56.4125 528.49C55.9925 528.49 55.5675 528.51 55.1375 528.55C54.7175 528.58 54.3325 528.65 53.9825 528.76C53.6425 528.86 53.3625 529.01 53.1425 529.21C52.9225 529.41 52.8125 529.675 52.8125 530.005C52.8125 530.255 52.8575 530.465 52.9475 530.635C53.0475 530.805 53.1775 530.945 53.3375 531.055C53.4975 531.155 53.6725 531.23 53.8625 531.28C54.0625 531.32 54.2625 531.34 54.4625 531.34C54.8225 531.34 55.1425 531.28 55.4225 531.16C55.7025 531.03 55.9375 530.86 56.1275 530.65C56.3175 530.43 56.4625 530.18 56.5625 529.9C56.6625 529.62 56.7125 529.325 56.7125 529.015V528.49H56.4125ZM64.0352 526.645C63.8852 526.355 63.6552 526.12 63.3452 525.94C63.0452 525.75 62.7002 525.655 62.3102 525.655C62.1302 525.655 61.9502 525.675 61.7702 525.715C61.5902 525.755 61.4302 525.82 61.2902 525.91C61.1502 526 61.0352 526.115 60.9452 526.255C60.8652 526.395 60.8252 526.56 60.8252 526.75C60.8252 527.08 60.9602 527.335 61.2302 527.515C61.5002 527.685 61.9252 527.83 62.5052 527.95C63.3352 528.12 63.9452 528.37 64.3352 528.7C64.7352 529.02 64.9352 529.455 64.9352 530.005C64.9352 530.405 64.8552 530.745 64.6952 531.025C64.5452 531.295 64.3452 531.52 64.0952 531.7C63.8452 531.87 63.5602 531.99 63.2402 532.06C62.9302 532.14 62.6152 532.18 62.2952 532.18C61.7652 532.18 61.2502 532.07 60.7502 531.85C60.2502 531.63 59.8402 531.285 59.5202 530.815L60.3302 530.215C60.5102 530.525 60.7752 530.785 61.1252 530.995C61.4752 531.205 61.8602 531.31 62.2802 531.31C62.5002 531.31 62.7102 531.29 62.9102 531.25C63.1102 531.21 63.2852 531.14 63.4352 531.04C63.5852 530.94 63.7052 530.815 63.7952 530.665C63.8852 530.505 63.9302 530.31 63.9302 530.08C63.9302 529.71 63.7502 529.435 63.3902 529.255C63.0402 529.065 62.5302 528.89 61.8602 528.73C61.6502 528.68 61.4252 528.62 61.1852 528.55C60.9552 528.47 60.7402 528.36 60.5402 528.22C60.3402 528.07 60.1752 527.885 60.0452 527.665C59.9152 527.445 59.8502 527.17 59.8502 526.84C59.8502 526.48 59.9202 526.175 60.0602 525.925C60.2002 525.665 60.3852 525.455 60.6152 525.295C60.8552 525.125 61.1252 525 61.4252 524.92C61.7252 524.84 62.0352 524.8 62.3552 524.8C62.8452 524.8 63.3202 524.91 63.7802 525.13C64.2402 525.35 64.5852 525.66 64.8152 526.06L64.0352 526.645ZM73.7666 530.605H73.7966L77.2466 521.38H78.4016L74.3366 532H73.1966L69.1466 521.38H70.3166L73.7666 530.605ZM84.5224 527.95C84.4924 527.29 84.2774 526.745 83.8774 526.315C83.4874 525.875 82.9274 525.655 82.1974 525.655C81.8574 525.655 81.5424 525.72 81.2524 525.85C80.9624 525.97 80.7074 526.14 80.4874 526.36C80.2674 526.57 80.0924 526.815 79.9624 527.095C79.8324 527.365 79.7574 527.65 79.7374 527.95H84.5224ZM85.5574 528.28C85.5574 528.35 85.5574 528.425 85.5574 528.505C85.5574 528.585 85.5524 528.67 85.5424 528.76H79.7224C79.7324 529.11 79.8024 529.44 79.9324 529.75C80.0624 530.06 80.2424 530.33 80.4724 530.56C80.7024 530.79 80.9724 530.975 81.2824 531.115C81.5924 531.245 81.9274 531.31 82.2874 531.31C82.8174 531.31 83.2724 531.19 83.6524 530.95C84.0424 530.7 84.3374 530.415 84.5374 530.095L85.3024 530.695C84.8824 531.225 84.4174 531.605 83.9074 531.835C83.4074 532.065 82.8674 532.18 82.2874 532.18C81.7674 532.18 81.2824 532.09 80.8324 531.91C80.3924 531.72 80.0124 531.46 79.6924 531.13C79.3724 530.8 79.1174 530.41 78.9274 529.96C78.7474 529.51 78.6574 529.02 78.6574 528.49C78.6574 527.96 78.7474 527.47 78.9274 527.02C79.1074 526.57 79.3574 526.18 79.6774 525.85C79.9974 525.52 80.3724 525.265 80.8024 525.085C81.2324 524.895 81.6974 524.8 82.1974 524.8C82.7474 524.8 83.2324 524.895 83.6524 525.085C84.0724 525.265 84.4224 525.515 84.7024 525.835C84.9824 526.145 85.1924 526.51 85.3324 526.93C85.4824 527.35 85.5574 527.8 85.5574 528.28ZM88.1264 533.41C88.4064 533.77 88.7864 534.075 89.2664 534.325C89.7564 534.575 90.2714 534.7 90.8114 534.7C91.3114 534.7 91.7364 534.625 92.0864 534.475C92.4364 534.335 92.7164 534.14 92.9264 533.89C93.1464 533.64 93.3064 533.345 93.4064 533.005C93.5064 532.675 93.5564 532.32 93.5564 531.94V530.62H93.5264C93.2564 531.06 92.8714 531.4 92.3714 531.64C91.8814 531.88 91.3814 532 90.8714 532C90.3214 532 89.8214 531.91 89.3714 531.73C88.9314 531.55 88.5514 531.305 88.2314 530.995C87.9214 530.675 87.6764 530.295 87.4964 529.855C87.3264 529.415 87.2414 528.94 87.2414 528.43C87.2414 527.93 87.3264 527.46 87.4964 527.02C87.6764 526.58 87.9214 526.195 88.2314 525.865C88.5514 525.535 88.9314 525.275 89.3714 525.085C89.8214 524.895 90.3214 524.8 90.8714 524.8C91.3814 524.8 91.8814 524.92 92.3714 525.16C92.8614 525.4 93.2464 525.745 93.5264 526.195H93.5564V524.98H94.5764V531.94C94.5764 532.32 94.5214 532.725 94.4114 533.155C94.3114 533.585 94.1164 533.98 93.8264 534.34C93.5464 534.7 93.1614 535 92.6714 535.24C92.1814 535.48 91.5464 535.6 90.7664 535.6C90.1164 535.6 89.4964 535.475 88.9064 535.225C88.3164 534.975 87.8114 534.63 87.3914 534.19L88.1264 533.41ZM88.3214 528.4C88.3214 528.77 88.3814 529.12 88.5014 529.45C88.6214 529.78 88.7914 530.07 89.0114 530.32C89.2414 530.57 89.5214 530.77 89.8514 530.92C90.1814 531.06 90.5564 531.13 90.9764 531.13C91.3664 531.13 91.7264 531.065 92.0564 530.935C92.3864 530.805 92.6714 530.62 92.9114 530.38C93.1514 530.14 93.3364 529.855 93.4664 529.525C93.6064 529.185 93.6764 528.81 93.6764 528.4C93.6764 528.03 93.6064 527.68 93.4664 527.35C93.3364 527.02 93.1514 526.73 92.9114 526.48C92.6714 526.23 92.3864 526.03 92.0564 525.88C91.7264 525.73 91.3664 525.655 90.9764 525.655C90.5564 525.655 90.1814 525.73 89.8514 525.88C89.5214 526.03 89.2414 526.23 89.0114 526.48C88.7914 526.73 88.6214 527.02 88.5014 527.35C88.3814 527.68 88.3214 528.03 88.3214 528.4ZM101.654 527.47C101.654 526.86 101.494 526.405 101.174 526.105C100.854 525.805 100.389 525.655 99.7789 525.655C99.3589 525.655 98.9689 525.73 98.6089 525.88C98.2489 526.03 97.9439 526.23 97.6939 526.48L97.1239 525.805C97.4139 525.515 97.7939 525.275 98.2639 525.085C98.7439 524.895 99.2839 524.8 99.8839 524.8C100.264 524.8 100.619 524.855 100.949 524.965C101.279 525.065 101.569 525.22 101.819 525.43C102.069 525.64 102.264 525.905 102.404 526.225C102.544 526.545 102.614 526.92 102.614 527.35V530.425C102.614 530.695 102.624 530.975 102.644 531.265C102.664 531.555 102.694 531.8 102.734 532H101.819C101.789 531.83 101.764 531.645 101.744 531.445C101.724 531.245 101.714 531.05 101.714 530.86H101.684C101.364 531.33 100.999 531.67 100.589 531.88C100.189 532.08 99.7039 532.18 99.1339 532.18C98.8639 532.18 98.5839 532.14 98.2939 532.06C98.0139 531.99 97.7539 531.87 97.5139 531.7C97.2839 531.53 97.0889 531.31 96.9289 531.04C96.7789 530.77 96.7039 530.44 96.7039 530.05C96.7039 529.51 96.8389 529.085 97.1089 528.775C97.3889 528.455 97.7589 528.22 98.2189 528.07C98.6789 527.91 99.2039 527.81 99.7939 527.77C100.394 527.72 101.014 527.695 101.654 527.695V527.47ZM101.354 528.49C100.934 528.49 100.509 528.51 100.079 528.55C99.6589 528.58 99.2739 528.65 98.9239 528.76C98.5839 528.86 98.3039 529.01 98.0839 529.21C97.8639 529.41 97.7539 529.675 97.7539 530.005C97.7539 530.255 97.7989 530.465 97.8889 530.635C97.9889 530.805 98.1189 530.945 98.2789 531.055C98.4389 531.155 98.6139 531.23 98.8039 531.28C99.0039 531.32 99.2039 531.34 99.4039 531.34C99.7639 531.34 100.084 531.28 100.364 531.16C100.644 531.03 100.879 530.86 101.069 530.65C101.259 530.43 101.404 530.18 101.504 529.9C101.604 529.62 101.654 529.325 101.654 529.015V528.49H101.354ZM108.977 526.645C108.827 526.355 108.597 526.12 108.287 525.94C107.987 525.75 107.642 525.655 107.252 525.655C107.072 525.655 106.892 525.675 106.712 525.715C106.532 525.755 106.372 525.82 106.232 525.91C106.092 526 105.977 526.115 105.887 526.255C105.807 526.395 105.767 526.56 105.767 526.75C105.767 527.08 105.902 527.335 106.172 527.515C106.442 527.685 106.867 527.83 107.447 527.95C108.277 528.12 108.887 528.37 109.277 528.7C109.677 529.02 109.877 529.455 109.877 530.005C109.877 530.405 109.797 530.745 109.637 531.025C109.487 531.295 109.287 531.52 109.037 531.7C108.787 531.87 108.502 531.99 108.182 532.06C107.872 532.14 107.557 532.18 107.237 532.18C106.707 532.18 106.192 532.07 105.692 531.85C105.192 531.63 104.782 531.285 104.462 530.815L105.272 530.215C105.452 530.525 105.717 530.785 106.067 530.995C106.417 531.205 106.802 531.31 107.222 531.31C107.442 531.31 107.652 531.29 107.852 531.25C108.052 531.21 108.227 531.14 108.377 531.04C108.527 530.94 108.647 530.815 108.737 530.665C108.827 530.505 108.872 530.31 108.872 530.08C108.872 529.71 108.692 529.435 108.332 529.255C107.982 529.065 107.472 528.89 106.802 528.73C106.592 528.68 106.367 528.62 106.127 528.55C105.897 528.47 105.682 528.36 105.482 528.22C105.282 528.07 105.117 527.885 104.987 527.665C104.857 527.445 104.792 527.17 104.792 526.84C104.792 526.48 104.862 526.175 105.002 525.925C105.142 525.665 105.327 525.455 105.557 525.295C105.797 525.125 106.067 525 106.367 524.92C106.667 524.84 106.977 524.8 107.297 524.8C107.787 524.8 108.262 524.91 108.722 525.13C109.182 525.35 109.527 525.66 109.757 526.06L108.977 526.645ZM120.862 523.09C120.632 522.77 120.337 522.515 119.977 522.325C119.617 522.125 119.182 522.025 118.672 522.025C118.412 522.025 118.147 522.065 117.877 522.145C117.607 522.225 117.362 522.35 117.142 522.52C116.922 522.68 116.742 522.885 116.602 523.135C116.472 523.385 116.407 523.68 116.407 524.02C116.407 524.36 116.472 524.64 116.602 524.86C116.732 525.08 116.902 525.27 117.112 525.43C117.332 525.58 117.577 525.705 117.847 525.805C118.127 525.905 118.417 526.005 118.717 526.105C119.087 526.225 119.457 526.355 119.827 526.495C120.207 526.635 120.547 526.82 120.847 527.05C121.147 527.27 121.392 527.555 121.582 527.905C121.772 528.245 121.867 528.68 121.867 529.21C121.867 529.74 121.762 530.2 121.552 530.59C121.352 530.97 121.087 531.285 120.757 531.535C120.437 531.785 120.067 531.97 119.647 532.09C119.237 532.21 118.822 532.27 118.402 532.27C118.082 532.27 117.762 532.235 117.442 532.165C117.122 532.105 116.817 532.01 116.527 531.88C116.237 531.75 115.967 531.585 115.717 531.385C115.467 531.185 115.247 530.955 115.057 530.695L115.987 530.005C116.217 530.385 116.537 530.705 116.947 530.965C117.367 531.215 117.857 531.34 118.417 531.34C118.687 531.34 118.962 531.3 119.242 531.22C119.522 531.13 119.772 531 119.992 530.83C120.222 530.65 120.407 530.435 120.547 530.185C120.697 529.925 120.772 529.625 120.772 529.285C120.772 528.915 120.697 528.61 120.547 528.37C120.407 528.12 120.217 527.915 119.977 527.755C119.737 527.585 119.462 527.445 119.152 527.335C118.842 527.225 118.517 527.115 118.177 527.005C117.827 526.895 117.482 526.77 117.142 526.63C116.802 526.49 116.497 526.31 116.227 526.09C115.957 525.86 115.737 525.58 115.567 525.25C115.407 524.92 115.327 524.515 115.327 524.035C115.327 523.525 115.427 523.085 115.627 522.715C115.837 522.345 116.107 522.04 116.437 521.8C116.767 521.56 117.132 521.385 117.532 521.275C117.932 521.165 118.327 521.11 118.717 521.11C119.437 521.11 120.052 521.24 120.562 521.5C121.072 521.75 121.457 522.05 121.717 522.4L120.862 523.09ZM127.201 525.835H125.221V529.93C125.221 530.19 125.246 530.405 125.296 530.575C125.346 530.745 125.416 530.88 125.506 530.98C125.606 531.07 125.721 531.135 125.851 531.175C125.981 531.205 126.121 531.22 126.271 531.22C126.411 531.22 126.556 531.2 126.706 531.16C126.866 531.12 127.016 531.065 127.156 530.995L127.201 531.88C127.021 531.95 126.831 532 126.631 532.03C126.441 532.07 126.231 532.09 126.001 532.09C125.811 532.09 125.611 532.065 125.401 532.015C125.191 531.965 124.996 531.87 124.816 531.73C124.636 531.59 124.486 531.4 124.366 531.16C124.256 530.92 124.201 530.605 124.201 530.215V525.835H122.746V524.98H124.201V523H125.221V524.98H127.201V525.835ZM133.221 527.47C133.221 526.86 133.061 526.405 132.741 526.105C132.421 525.805 131.956 525.655 131.346 525.655C130.926 525.655 130.536 525.73 130.176 525.88C129.816 526.03 129.511 526.23 129.261 526.48L128.691 525.805C128.981 525.515 129.361 525.275 129.831 525.085C130.311 524.895 130.851 524.8 131.451 524.8C131.831 524.8 132.186 524.855 132.516 524.965C132.846 525.065 133.136 525.22 133.386 525.43C133.636 525.64 133.831 525.905 133.971 526.225C134.111 526.545 134.181 526.92 134.181 527.35V530.425C134.181 530.695 134.191 530.975 134.211 531.265C134.231 531.555 134.261 531.8 134.301 532H133.386C133.356 531.83 133.331 531.645 133.311 531.445C133.291 531.245 133.281 531.05 133.281 530.86H133.251C132.931 531.33 132.566 531.67 132.156 531.88C131.756 532.08 131.271 532.18 130.701 532.18C130.431 532.18 130.151 532.14 129.861 532.06C129.581 531.99 129.321 531.87 129.081 531.7C128.851 531.53 128.656 531.31 128.496 531.04C128.346 530.77 128.271 530.44 128.271 530.05C128.271 529.51 128.406 529.085 128.676 528.775C128.956 528.455 129.326 528.22 129.786 528.07C130.246 527.91 130.771 527.81 131.361 527.77C131.961 527.72 132.581 527.695 133.221 527.695V527.47ZM132.921 528.49C132.501 528.49 132.076 528.51 131.646 528.55C131.226 528.58 130.841 528.65 130.491 528.76C130.151 528.86 129.871 529.01 129.651 529.21C129.431 529.41 129.321 529.675 129.321 530.005C129.321 530.255 129.366 530.465 129.456 530.635C129.556 530.805 129.686 530.945 129.846 531.055C130.006 531.155 130.181 531.23 130.371 531.28C130.571 531.32 130.771 531.34 130.971 531.34C131.331 531.34 131.651 531.28 131.931 531.16C132.211 531.03 132.446 530.86 132.636 530.65C132.826 530.43 132.971 530.18 133.071 529.9C133.171 529.62 133.221 529.325 133.221 529.015V528.49H132.921ZM139.828 525.835H137.848V529.93C137.848 530.19 137.873 530.405 137.923 530.575C137.973 530.745 138.043 530.88 138.133 530.98C138.233 531.07 138.348 531.135 138.478 531.175C138.608 531.205 138.748 531.22 138.898 531.22C139.038 531.22 139.183 531.2 139.333 531.16C139.493 531.12 139.643 531.065 139.783 530.995L139.828 531.88C139.648 531.95 139.458 532 139.258 532.03C139.068 532.07 138.858 532.09 138.628 532.09C138.438 532.09 138.238 532.065 138.028 532.015C137.818 531.965 137.623 531.87 137.443 531.73C137.263 531.59 137.113 531.4 136.993 531.16C136.883 530.92 136.828 530.605 136.828 530.215V525.835H135.373V524.98H136.828V523H137.848V524.98H139.828V525.835ZM142.458 532H141.438V524.98H142.458V532ZM142.668 522.28C142.668 522.49 142.593 522.665 142.443 522.805C142.293 522.935 142.128 523 141.948 523C141.768 523 141.603 522.935 141.453 522.805C141.303 522.665 141.228 522.49 141.228 522.28C141.228 522.07 141.303 521.9 141.453 521.77C141.603 521.63 141.768 521.56 141.948 521.56C142.128 521.56 142.293 521.63 142.443 521.77C142.593 521.9 142.668 522.07 142.668 522.28ZM152.148 528.49C152.148 529.02 152.053 529.51 151.863 529.96C151.683 530.41 151.428 530.8 151.098 531.13C150.768 531.46 150.373 531.72 149.913 531.91C149.453 532.09 148.948 532.18 148.398 532.18C147.858 532.18 147.358 532.09 146.898 531.91C146.438 531.72 146.043 531.46 145.713 531.13C145.383 530.8 145.123 530.41 144.933 529.96C144.753 529.51 144.663 529.02 144.663 528.49C144.663 527.96 144.753 527.47 144.933 527.02C145.123 526.57 145.383 526.18 145.713 525.85C146.043 525.52 146.438 525.265 146.898 525.085C147.358 524.895 147.858 524.8 148.398 524.8C148.948 524.8 149.453 524.895 149.913 525.085C150.373 525.265 150.768 525.52 151.098 525.85C151.428 526.18 151.683 526.57 151.863 527.02C152.053 527.47 152.148 527.96 152.148 528.49ZM151.068 528.49C151.068 528.1 151.003 527.735 150.873 527.395C150.753 527.045 150.578 526.745 150.348 526.495C150.118 526.235 149.838 526.03 149.508 525.88C149.178 525.73 148.808 525.655 148.398 525.655C147.988 525.655 147.618 525.73 147.288 525.88C146.968 526.03 146.693 526.235 146.463 526.495C146.233 526.745 146.053 527.045 145.923 527.395C145.803 527.735 145.743 528.1 145.743 528.49C145.743 528.88 145.803 529.25 145.923 529.6C146.053 529.94 146.233 530.24 146.463 530.5C146.693 530.75 146.968 530.95 147.288 531.1C147.618 531.24 147.988 531.31 148.398 531.31C148.808 531.31 149.178 531.24 149.508 531.1C149.838 530.95 150.118 530.75 150.348 530.5C150.578 530.24 150.753 529.94 150.873 529.6C151.003 529.25 151.068 528.88 151.068 528.49ZM155.258 524.98C155.278 525.17 155.293 525.38 155.303 525.61C155.313 525.84 155.318 526.03 155.318 526.18H155.348C155.548 525.77 155.873 525.44 156.323 525.19C156.773 524.93 157.248 524.8 157.748 524.8C158.638 524.8 159.303 525.065 159.743 525.595C160.193 526.125 160.418 526.825 160.418 527.695V532H159.398V528.115C159.398 527.745 159.368 527.41 159.308 527.11C159.248 526.81 159.143 526.555 158.993 526.345C158.853 526.125 158.658 525.955 158.408 525.835C158.168 525.715 157.863 525.655 157.493 525.655C157.223 525.655 156.958 525.71 156.698 525.82C156.448 525.93 156.223 526.1 156.023 526.33C155.823 526.55 155.663 526.835 155.543 527.185C155.423 527.525 155.363 527.93 155.363 528.4V532H154.343V526.525C154.343 526.335 154.338 526.09 154.328 525.79C154.318 525.49 154.303 525.22 154.283 524.98H155.258Z" fill="#258088"/>
<path d="M265.71 481H267.204V469.022H265.718L262.531 471.313V472.89L265.577 470.682H265.71V481ZM273.596 481H275.09V469.022H273.604L270.417 471.313V472.89L273.463 470.682H273.596V481ZM279.738 479.298C280.037 479.298 280.292 479.193 280.502 478.983C280.712 478.767 280.817 478.513 280.817 478.219C280.817 477.92 280.712 477.666 280.502 477.456C280.292 477.245 280.037 477.14 279.738 477.14C279.445 477.14 279.19 477.245 278.975 477.456C278.764 477.666 278.659 477.92 278.659 478.219C278.659 478.513 278.764 478.767 278.975 478.983C279.19 479.193 279.445 479.298 279.738 479.298ZM279.738 472.874C280.037 472.874 280.292 472.768 280.502 472.558C280.712 472.342 280.817 472.088 280.817 471.794C280.817 471.496 280.712 471.241 280.502 471.031C280.292 470.82 280.037 470.715 279.738 470.715C279.445 470.715 279.19 470.82 278.975 471.031C278.764 471.241 278.659 471.496 278.659 471.794C278.659 472.088 278.764 472.342 278.975 472.558C279.19 472.768 279.445 472.874 279.738 472.874ZM289.068 481H290.529V478.518H292.231V477.182H290.529V469.022H288.363C288.025 469.52 287.682 470.035 287.333 470.566C286.99 471.097 286.645 471.637 286.296 472.185C285.947 472.732 285.599 473.286 285.25 473.845C284.907 474.398 284.567 474.954 284.229 475.513C283.891 476.067 283.559 476.614 283.233 477.157V478.518H289.068V481ZM284.76 477.19V477.09C285.02 476.648 285.289 476.199 285.565 475.746C285.848 475.286 286.133 474.827 286.42 474.368C286.708 473.908 286.996 473.452 287.284 472.998C287.577 472.544 287.865 472.102 288.147 471.67C288.429 471.233 288.706 470.812 288.977 470.408H289.077V477.19H284.76ZM294.539 481H302.292V479.655H296.249L296.614 479.904V479.215L296.24 479.904L299.336 476.708C300.061 475.961 300.623 475.333 301.021 474.824C301.42 474.31 301.697 473.842 301.852 473.421C302.012 473.001 302.092 472.564 302.092 472.11V472.093C302.092 471.446 301.929 470.87 301.603 470.367C301.282 469.863 300.842 469.467 300.283 469.18C299.724 468.886 299.096 468.74 298.398 468.74C297.635 468.74 296.957 468.897 296.365 469.213C295.773 469.523 295.308 469.954 294.97 470.508C294.633 471.056 294.461 471.684 294.456 472.392L294.472 472.4L295.9 472.409L295.908 472.392C295.908 471.922 296.008 471.512 296.207 471.164C296.406 470.809 296.686 470.535 297.045 470.342C297.405 470.143 297.823 470.043 298.299 470.043C298.769 470.043 299.173 470.14 299.511 470.333C299.848 470.527 300.108 470.79 300.291 471.122C300.474 471.454 300.565 471.83 300.565 472.251V472.268C300.565 472.616 300.507 472.937 300.391 473.23C300.274 473.524 300.072 473.853 299.785 474.218C299.497 474.578 299.098 475.035 298.589 475.588L294.539 479.971V481ZM308.816 481H310.385L313.904 470.956H314.377V469.022H313.232L308.816 481ZM310.816 477.572H317.158L316.693 476.302H311.281L310.816 477.572ZM317.557 481H319.125L314.709 469.022H314.037V470.956L317.557 481ZM321.226 481H322.62V471.853H323.351L321.682 469.354L326.497 481H327.758L332.581 469.354L330.904 471.853H331.635V481H333.029V469.022H331.294L327.194 479.016H327.061L322.96 469.022H321.226V481Z" fill="#363636"/>
<path d="M295.643 490.176H299.171V498.184H308.439V490.176H311.967V510H308.439V501.208H299.171V510H295.643V490.176ZM316.342 490.176H323.37C324.658 490.176 325.956 490.344 327.262 490.68C328.569 491.016 329.745 491.576 330.79 492.36C331.836 493.125 332.685 494.143 333.338 495.412C333.992 496.663 334.318 498.221 334.318 500.088C334.318 501.824 333.992 503.317 333.338 504.568C332.685 505.819 331.836 506.845 330.79 507.648C329.745 508.451 328.569 509.048 327.262 509.44C325.956 509.813 324.658 510 323.37 510H316.342V490.176ZM322.81 506.92C323.725 506.92 324.64 506.817 325.554 506.612C326.469 506.388 327.29 506.024 328.018 505.52C328.765 504.997 329.372 504.297 329.838 503.42C330.305 502.543 330.538 501.432 330.538 500.088C330.538 498.669 330.305 497.512 329.838 496.616C329.372 495.72 328.765 495.02 328.018 494.516C327.29 494.012 326.469 493.667 325.554 493.48C324.64 493.293 323.725 493.2 322.81 493.2H319.87V506.92H322.81Z" fill="#363636"/>
<path d="M250.521 521.38H251.601V525.985H257.391V521.38H258.471V532H257.391V526.975H251.601V532H250.521V521.38ZM268.203 528.49C268.203 529.02 268.108 529.51 267.918 529.96C267.738 530.41 267.483 530.8 267.153 531.13C266.823 531.46 266.428 531.72 265.968 531.91C265.508 532.09 265.003 532.18 264.453 532.18C263.913 532.18 263.413 532.09 262.953 531.91C262.493 531.72 262.098 531.46 261.768 531.13C261.438 530.8 261.178 530.41 260.988 529.96C260.808 529.51 260.718 529.02 260.718 528.49C260.718 527.96 260.808 527.47 260.988 527.02C261.178 526.57 261.438 526.18 261.768 525.85C262.098 525.52 262.493 525.265 262.953 525.085C263.413 524.895 263.913 524.8 264.453 524.8C265.003 524.8 265.508 524.895 265.968 525.085C266.428 525.265 266.823 525.52 267.153 525.85C267.483 526.18 267.738 526.57 267.918 527.02C268.108 527.47 268.203 527.96 268.203 528.49ZM267.123 528.49C267.123 528.1 267.058 527.735 266.928 527.395C266.808 527.045 266.633 526.745 266.403 526.495C266.173 526.235 265.893 526.03 265.563 525.88C265.233 525.73 264.863 525.655 264.453 525.655C264.043 525.655 263.673 525.73 263.343 525.88C263.023 526.03 262.748 526.235 262.518 526.495C262.288 526.745 262.108 527.045 261.978 527.395C261.858 527.735 261.798 528.1 261.798 528.49C261.798 528.88 261.858 529.25 261.978 529.6C262.108 529.94 262.288 530.24 262.518 530.5C262.748 530.75 263.023 530.95 263.343 531.1C263.673 531.24 264.043 531.31 264.453 531.31C264.863 531.31 265.233 531.24 265.563 531.1C265.893 530.95 266.173 530.75 266.403 530.5C266.633 530.24 266.808 529.94 266.928 529.6C267.058 529.25 267.123 528.88 267.123 528.49ZM277.373 528.49C277.373 529.02 277.278 529.51 277.088 529.96C276.908 530.41 276.653 530.8 276.323 531.13C275.993 531.46 275.598 531.72 275.138 531.91C274.678 532.09 274.173 532.18 273.623 532.18C273.083 532.18 272.583 532.09 272.123 531.91C271.663 531.72 271.268 531.46 270.938 531.13C270.608 530.8 270.348 530.41 270.158 529.96C269.978 529.51 269.888 529.02 269.888 528.49C269.888 527.96 269.978 527.47 270.158 527.02C270.348 526.57 270.608 526.18 270.938 525.85C271.268 525.52 271.663 525.265 272.123 525.085C272.583 524.895 273.083 524.8 273.623 524.8C274.173 524.8 274.678 524.895 275.138 525.085C275.598 525.265 275.993 525.52 276.323 525.85C276.653 526.18 276.908 526.57 277.088 527.02C277.278 527.47 277.373 527.96 277.373 528.49ZM276.293 528.49C276.293 528.1 276.228 527.735 276.098 527.395C275.978 527.045 275.803 526.745 275.573 526.495C275.343 526.235 275.063 526.03 274.733 525.88C274.403 525.73 274.033 525.655 273.623 525.655C273.213 525.655 272.843 525.73 272.513 525.88C272.193 526.03 271.918 526.235 271.688 526.495C271.458 526.745 271.278 527.045 271.148 527.395C271.028 527.735 270.968 528.1 270.968 528.49C270.968 528.88 271.028 529.25 271.148 529.6C271.278 529.94 271.458 530.24 271.688 530.5C271.918 530.75 272.193 530.95 272.513 531.1C272.843 531.24 273.213 531.31 273.623 531.31C274.033 531.31 274.403 531.24 274.733 531.1C275.063 530.95 275.343 530.75 275.573 530.5C275.803 530.24 275.978 529.94 276.098 529.6C276.228 529.25 276.293 528.88 276.293 528.49ZM282.448 532H281.323L278.458 524.98H279.598L281.878 530.92H281.908L284.203 524.98H285.298L282.448 532ZM292.247 527.95C292.217 527.29 292.002 526.745 291.602 526.315C291.212 525.875 290.652 525.655 289.922 525.655C289.582 525.655 289.267 525.72 288.977 525.85C288.687 525.97 288.432 526.14 288.212 526.36C287.992 526.57 287.817 526.815 287.687 527.095C287.557 527.365 287.482 527.65 287.462 527.95H292.247ZM293.282 528.28C293.282 528.35 293.282 528.425 293.282 528.505C293.282 528.585 293.277 528.67 293.267 528.76H287.447C287.457 529.11 287.527 529.44 287.657 529.75C287.787 530.06 287.967 530.33 288.197 530.56C288.427 530.79 288.697 530.975 289.007 531.115C289.317 531.245 289.652 531.31 290.012 531.31C290.542 531.31 290.997 531.19 291.377 530.95C291.767 530.7 292.062 530.415 292.262 530.095L293.027 530.695C292.607 531.225 292.142 531.605 291.632 531.835C291.132 532.065 290.592 532.18 290.012 532.18C289.492 532.18 289.007 532.09 288.557 531.91C288.117 531.72 287.737 531.46 287.417 531.13C287.097 530.8 286.842 530.41 286.652 529.96C286.472 529.51 286.382 529.02 286.382 528.49C286.382 527.96 286.472 527.47 286.652 527.02C286.832 526.57 287.082 526.18 287.402 525.85C287.722 525.52 288.097 525.265 288.527 525.085C288.957 524.895 289.422 524.8 289.922 524.8C290.472 524.8 290.957 524.895 291.377 525.085C291.797 525.265 292.147 525.515 292.427 525.835C292.707 526.145 292.917 526.51 293.057 526.93C293.207 527.35 293.282 527.8 293.282 528.28ZM295.476 526.525C295.476 526.335 295.471 526.09 295.461 525.79C295.451 525.49 295.436 525.22 295.416 524.98H296.391C296.411 525.17 296.426 525.38 296.436 525.61C296.446 525.84 296.451 526.03 296.451 526.18H296.481C296.681 525.77 296.981 525.44 297.381 525.19C297.781 524.93 298.231 524.8 298.731 524.8C298.861 524.8 298.976 524.805 299.076 524.815C299.186 524.825 299.296 524.845 299.406 524.875L299.271 525.835C299.211 525.815 299.111 525.795 298.971 525.775C298.831 525.755 298.691 525.745 298.551 525.745C298.281 525.745 298.021 525.795 297.771 525.895C297.521 525.995 297.301 526.155 297.111 526.375C296.931 526.585 296.781 526.86 296.661 527.2C296.551 527.53 296.496 527.93 296.496 528.4V532H295.476V526.525ZM304.691 521.38H308.216C308.876 521.38 309.536 521.49 310.196 521.71C310.866 521.93 311.466 522.265 311.996 522.715C312.536 523.155 312.971 523.71 313.301 524.38C313.631 525.04 313.796 525.81 313.796 526.69C313.796 527.58 313.631 528.355 313.301 529.015C312.971 529.675 312.536 530.23 311.996 530.68C311.466 531.12 310.866 531.45 310.196 531.67C309.536 531.89 308.876 532 308.216 532H304.691V521.38ZM305.771 531.04H307.916C308.716 531.04 309.411 530.915 310.001 530.665C310.601 530.415 311.096 530.09 311.486 529.69C311.876 529.28 312.166 528.815 312.356 528.295C312.556 527.775 312.656 527.24 312.656 526.69C312.656 526.14 312.556 525.605 312.356 525.085C312.166 524.565 311.876 524.105 311.486 523.705C311.096 523.295 310.601 522.965 310.001 522.715C309.411 522.465 308.716 522.34 307.916 522.34H305.771V531.04ZM320.409 527.47C320.409 526.86 320.249 526.405 319.929 526.105C319.609 525.805 319.144 525.655 318.534 525.655C318.114 525.655 317.724 525.73 317.364 525.88C317.004 526.03 316.699 526.23 316.449 526.48L315.879 525.805C316.169 525.515 316.549 525.275 317.019 525.085C317.499 524.895 318.039 524.8 318.639 524.8C319.019 524.8 319.374 524.855 319.704 524.965C320.034 525.065 320.324 525.22 320.574 525.43C320.824 525.64 321.019 525.905 321.159 526.225C321.299 526.545 321.369 526.92 321.369 527.35V530.425C321.369 530.695 321.379 530.975 321.399 531.265C321.419 531.555 321.449 531.8 321.489 532H320.574C320.544 531.83 320.519 531.645 320.499 531.445C320.479 531.245 320.469 531.05 320.469 530.86H320.439C320.119 531.33 319.754 531.67 319.344 531.88C318.944 532.08 318.459 532.18 317.889 532.18C317.619 532.18 317.339 532.14 317.049 532.06C316.769 531.99 316.509 531.87 316.269 531.7C316.039 531.53 315.844 531.31 315.684 531.04C315.534 530.77 315.459 530.44 315.459 530.05C315.459 529.51 315.594 529.085 315.864 528.775C316.144 528.455 316.514 528.22 316.974 528.07C317.434 527.91 317.959 527.81 318.549 527.77C319.149 527.72 319.769 527.695 320.409 527.695V527.47ZM320.109 528.49C319.689 528.49 319.264 528.51 318.834 528.55C318.414 528.58 318.029 528.65 317.679 528.76C317.339 528.86 317.059 529.01 316.839 529.21C316.619 529.41 316.509 529.675 316.509 530.005C316.509 530.255 316.554 530.465 316.644 530.635C316.744 530.805 316.874 530.945 317.034 531.055C317.194 531.155 317.369 531.23 317.559 531.28C317.759 531.32 317.959 531.34 318.159 531.34C318.519 531.34 318.839 531.28 319.119 531.16C319.399 531.03 319.634 530.86 319.824 530.65C320.014 530.43 320.159 530.18 320.259 529.9C320.359 529.62 320.409 529.325 320.409 529.015V528.49H320.109ZM325.001 526.18C325.201 525.77 325.506 525.44 325.916 525.19C326.336 524.93 326.801 524.8 327.311 524.8C327.501 524.8 327.696 524.82 327.896 524.86C328.106 524.9 328.306 524.98 328.496 525.1C328.696 525.21 328.876 525.36 329.036 525.55C329.206 525.74 329.351 525.985 329.471 526.285C329.711 525.805 330.036 525.44 330.446 525.19C330.866 524.93 331.361 524.8 331.931 524.8C332.821 524.8 333.486 525.065 333.926 525.595C334.376 526.125 334.601 526.825 334.601 527.695V532H333.581V528.115C333.581 527.375 333.441 526.78 333.161 526.33C332.891 525.88 332.426 525.655 331.766 525.655C331.396 525.655 331.081 525.73 330.821 525.88C330.571 526.03 330.366 526.23 330.206 526.48C330.056 526.72 329.946 526.995 329.876 527.305C329.806 527.615 329.771 527.935 329.771 528.265V532H328.751V527.905C328.751 527.565 328.726 527.255 328.676 526.975C328.626 526.695 328.536 526.46 328.406 526.27C328.286 526.07 328.116 525.92 327.896 525.82C327.676 525.71 327.396 525.655 327.056 525.655C326.816 525.655 326.571 525.71 326.321 525.82C326.081 525.93 325.861 526.1 325.661 526.33C325.471 526.55 325.316 526.835 325.196 527.185C325.076 527.525 325.016 527.93 325.016 528.4V532H323.996V526.525C323.996 526.335 323.991 526.09 323.981 525.79C323.971 525.49 323.956 525.22 323.936 524.98H324.911C324.931 525.17 324.946 525.38 324.956 525.61C324.966 525.84 324.971 526.03 324.971 526.18H325.001Z" fill="#258088"/>
<defs>
<filter id="filter0_d_1585_16095" x="0" y="0" width="382" height="577.826" filterUnits="userSpaceOnUse" color-interpolation-filters="sRGB">
<feFlood flood-opacity="0" result="BackgroundImageFix"/>
<feColorMatrix in="SourceAlpha" type="matrix" values="0 0 0 0 0 0 0 0 0 0 0 0 0 0 0 0 0 0 127 0" result="hardAlpha"/>
<feOffset dx="3" dy="3"/>
<feGaussianBlur stdDeviation="10"/>
<feColorMatrix type="matrix" values="0 0 0 0 0.141176 0 0 0 0 0.254902 0 0 0 0 0.364706 0 0 0 0.302 0"/>
<feBlend mode="normal" in2="BackgroundImageFix" result="effect1_dropShadow_1585_16095"/>
<feBlend mode="normal" in="SourceGraphic" in2="effect1_dropShadow_1585_16095" result="shape"/>
</filter>
</defs>
</svg>
