<svg width="23" height="23" viewBox="0 0 23 23" fill="none" xmlns="http://www.w3.org/2000/svg">
<path fill-rule="evenodd" clip-rule="evenodd" d="M9.37497 2.94434C8.91492 2.94434 8.47372 3.12709 8.14842 3.45239C7.82311 3.7777 7.64036 4.2189 7.64036 4.67895V6.63664H3.30318C2.43581 6.63664 1.73267 7.33979 1.73267 8.20716V18.8738C1.73267 19.7412 2.43581 20.4443 3.30318 20.4443H20.1237C20.9911 20.4443 21.6942 19.7412 21.6942 18.8738V8.20716C21.6942 7.33979 20.9911 6.63664 20.1237 6.63664H16.0327V4.67895C16.0327 4.2189 15.8499 3.7777 15.5246 3.45239C15.1993 3.12709 14.7581 2.94434 14.298 2.94434H9.37497ZM14.5327 6.63664V4.67895C14.5327 4.61673 14.5079 4.55705 14.4639 4.51305C14.4199 4.46905 14.3603 4.44434 14.298 4.44434H9.37497C9.31275 4.44434 9.25307 4.46905 9.20907 4.51305C9.16508 4.55705 9.14036 4.61673 9.14036 4.67895V6.63664H14.5327ZM3.23267 8.20716C3.23267 8.16821 3.26424 8.13664 3.30318 8.13664H20.1237C20.1626 8.13664 20.1942 8.16821 20.1942 8.20716V18.8738C20.1942 18.9128 20.1626 18.9443 20.1237 18.9443H3.30318C3.26424 18.9443 3.23267 18.9128 3.23267 18.8738V8.20716Z" fill="currentColor"/>
</svg>
