<svg width="16" height="17" viewBox="0 0 16 17" fill="none" xmlns="http://www.w3.org/2000/svg">
<path d="M1.75703 7.80866H5.54564C6.13132 7.80866 6.57058 7.65867 6.86342 7.35871C7.15625 7.05875 7.30267 6.60882 7.30267 6.00891V2.29972C7.30267 1.69981 7.15625 1.24989 6.86342 0.949942C6.57058 0.64998 6.13132 0.5 5.54564 0.5H1.75703C1.17136 0.5 0.732106 0.64998 0.439271 0.949942C0.146424 1.24989 0 1.69981 0 2.29972V6.00891C0 6.60882 0.146424 7.05875 0.439271 7.35871C0.732106 7.65867 1.17136 7.80866 1.75703 7.80866ZM1.76803 6.42593C1.50446 6.42593 1.37268 6.28692 1.37268 6.00891V2.28875C1.37268 2.01807 1.50446 1.88273 1.76803 1.88273H5.52368C5.79456 1.88273 5.92999 2.01807 5.92999 2.28875V6.00891C5.92999 6.28692 5.79456 6.42593 5.52368 6.42593H1.76803ZM2.88812 5.08711H4.40357C4.52803 5.08711 4.59026 5.01761 4.59026 4.87859V3.41907C4.59026 3.28738 4.52803 3.22154 4.40357 3.22154H2.88812C2.77099 3.22154 2.71243 3.28738 2.71243 3.41907V4.87859C2.71243 5.01761 2.77099 5.08711 2.88812 5.08711ZM10.4544 7.80866H14.243C14.836 7.80866 15.2771 7.65867 15.5662 7.35871C15.8554 7.05875 16 6.60882 16 6.00891V2.29972C16 1.69981 15.8554 1.24989 15.5662 0.949942C15.2771 0.64998 14.836 0.5 14.243 0.5H10.4544C9.86869 0.5 9.42943 0.64998 9.13658 0.949942C8.84374 1.24989 8.69732 1.69981 8.69732 2.29972V6.00891C8.69732 6.60882 8.84374 7.05875 9.13658 7.35871C9.42943 7.65867 9.86869 7.80866 10.4544 7.80866ZM10.4763 6.42593C10.2054 6.42593 10.07 6.28692 10.07 6.00891V2.28875C10.07 2.01807 10.2054 1.88273 10.4763 1.88273H14.232C14.4955 1.88273 14.6273 2.01807 14.6273 2.28875V6.00891C14.6273 6.28692 14.4955 6.42593 14.232 6.42593H10.4763ZM11.6513 5.08711H13.1668C13.2912 5.08711 13.3535 5.01761 13.3535 4.87859V3.41907C13.3535 3.28738 13.2912 3.22154 13.1668 3.22154H11.6513C11.5342 3.22154 11.4756 3.28738 11.4756 3.41907V4.87859C11.4756 5.01761 11.5342 5.08711 11.6513 5.08711ZM1.75703 16.5H5.54564C6.13132 16.5 6.57058 16.3519 6.86342 16.0556C7.15625 15.7593 7.30267 15.3075 7.30267 14.7003V10.9911C7.30267 10.3912 7.15625 9.94308 6.86342 9.64679C6.57058 9.35048 6.13132 9.20233 5.54564 9.20233H1.75703C1.17136 9.20233 0.732106 9.35048 0.439271 9.64679C0.146424 9.94308 0 10.3912 0 10.9911V14.7003C0 15.3075 0.146424 15.7593 0.439271 16.0556C0.732106 16.3519 1.17136 16.5 1.75703 16.5ZM1.76803 15.1173C1.50446 15.1173 1.37268 14.9819 1.37268 14.7112V10.9911C1.37268 10.7131 1.50446 10.5741 1.76803 10.5741H5.52368C5.79456 10.5741 5.92999 10.7131 5.92999 10.9911V14.7112C5.92999 14.9819 5.79456 15.1173 5.52368 15.1173H1.76803ZM2.88812 13.7785H4.40357C4.52803 13.7785 4.59026 13.709 4.59026 13.57V12.1104C4.59026 11.9787 4.52803 11.9129 4.40357 11.9129H2.88812C2.77099 11.9129 2.71243 11.9787 2.71243 12.1104V13.57C2.71243 13.709 2.77099 13.7785 2.88812 13.7785ZM9.30129 11.4959H10.8167C10.9412 11.4959 11.0034 11.4264 11.0034 11.2874V9.82784C11.0034 9.69616 10.9412 9.63031 10.8167 9.63031H9.30129C9.18417 9.63031 9.1256 9.69616 9.1256 9.82784V11.2874C9.1256 11.4264 9.18417 11.4959 9.30129 11.4959ZM13.8696 11.4959H15.385C15.5095 11.4959 15.5717 11.4264 15.5717 11.2874V9.82784C15.5717 9.69616 15.5095 9.63031 15.385 9.63031H13.8696C13.7525 9.63031 13.6939 9.69616 13.6939 9.82784V11.2874C13.6939 11.4264 13.7525 11.4959 13.8696 11.4959ZM11.6074 13.7785H13.1228C13.2473 13.7785 13.3095 13.709 13.3095 13.57V12.1104C13.3095 11.9787 13.2473 11.9129 13.1228 11.9129H11.6074C11.4903 11.9129 11.4317 11.9787 11.4317 12.1104V13.57C11.4317 13.709 11.4903 13.7785 11.6074 13.7785ZM9.30129 16.061H10.8167C10.9412 16.061 11.0034 15.9915 11.0034 15.8525V14.393C11.0034 14.2613 10.9412 14.1955 10.8167 14.1955H9.30129C9.18417 14.1955 9.1256 14.2613 9.1256 14.393V15.8525C9.1256 15.9915 9.18417 16.061 9.30129 16.061ZM13.8696 16.061H15.385C15.5095 16.061 15.5717 15.9915 15.5717 15.8525V14.393C15.5717 14.2613 15.5095 14.1955 15.385 14.1955H13.8696C13.7525 14.1955 13.6939 14.2613 13.6939 14.393V15.8525C13.6939 15.9915 13.7525 16.061 13.8696 16.061Z" fill="#363636"/>
</svg>
