<svg width="23" height="23" viewBox="0 0 23 23" fill="none" xmlns="http://www.w3.org/2000/svg">
<path d="M1.92847 14.1943L13.9285 2.19434L15.4285 3.69434C14.9285 4.361 14.2285 5.99434 15.4285 7.19434C16.6285 8.39434 18.2618 7.69434 18.9285 7.19434L20.4285 8.69434L8.42847 20.6943L6.92847 19.1943C7.59513 18.6943 8.52847 17.2943 6.92847 15.6943C5.32847 14.0943 3.92847 15.0277 3.42847 15.6943L1.92847 14.1943Z" fill="#06D3C4"/>
<path fill-rule="evenodd" clip-rule="evenodd" d="M14.2902 1.81256L13.8184 1.34082L13.3466 1.81257L1.54664 13.6126L1.07605 14.0895L3.64042 16.6559L4.11045 16.1859C4.41728 15.8913 4.82729 15.7286 5.25266 15.7326C5.67879 15.7367 6.08633 15.9078 6.38767 16.2091C6.68901 16.5104 6.86009 16.918 6.86414 17.3441C6.86818 17.7695 6.70547 18.1795 6.41092 18.4863L5.94087 18.9563L6.41264 19.4281L8.03465 21.0502L8.50642 21.5219L8.9782 21.0502L20.7782 9.25011L20.7797 9.24862L21.2485 8.77186L19.1562 6.67957L18.6844 6.20782L18.2126 6.67957C17.9075 6.98461 17.4936 7.15593 17.0621 7.15585C16.6306 7.15577 16.2168 6.98429 15.9117 6.67912C15.6067 6.37394 15.4353 5.96003 15.4354 5.52852C15.4355 5.09701 15.607 4.68317 15.9122 4.3781L16.384 3.90634L14.2902 1.81256ZM16.6184 11.5218L11.0734 5.97685L13.8194 3.2309L14.5566 3.9681C14.2228 4.50092 14.067 5.12837 14.1152 5.75901C14.1689 6.46164 14.4724 7.12182 14.9707 7.6201C15.469 8.11838 16.1291 8.42184 16.8318 8.47556C17.4625 8.52377 18.0899 8.36789 18.6227 8.03408L19.3648 8.77544L16.6184 11.5218ZM3.70018 14.8266L2.96197 14.0883L10.1294 6.9209L15.6759 12.4674L8.50842 19.6348L7.76621 18.8926C8.09999 18.3598 8.25582 17.7323 8.20761 17.1017C8.15389 16.3991 7.85044 15.7389 7.35216 15.2406C6.85388 14.7423 6.19369 14.4389 5.49107 14.3852C4.86042 14.3369 4.23298 14.4928 3.70018 14.8266Z" fill="#363636"/>
</svg>
