<svg width="23" height="23" viewBox="0 0 23 23" fill="none" xmlns="http://www.w3.org/2000/svg">
<path fill-rule="evenodd" clip-rule="evenodd" d="M8.23267 6.69434C8.23267 4.89941 9.68775 3.44434 11.4827 3.44434C13.2776 3.44434 14.7327 4.89941 14.7327 6.69434C14.7327 8.48926 13.2776 9.94434 11.4827 9.94434C9.68775 9.94434 8.23267 8.48926 8.23267 6.69434ZM11.4827 1.94434C8.85932 1.94434 6.73267 4.07098 6.73267 6.69434C6.73267 9.31769 8.85932 11.4443 11.4827 11.4443C14.106 11.4443 16.2327 9.31769 16.2327 6.69434C16.2327 4.07098 14.106 1.94434 11.4827 1.94434ZM6.76654 15.9852C8.09014 14.9925 9.75613 14.4443 11.4827 14.4443C13.2092 14.4443 14.8752 14.9925 16.1988 15.9852C17.2491 16.7729 18.0299 17.7994 18.474 18.9443H4.49132C4.93548 17.7994 5.71626 16.7729 6.76654 15.9852ZM11.4827 12.9443C9.44316 12.9443 7.45889 13.5909 5.86654 14.7852C4.27308 15.9803 3.16593 17.6545 2.75039 19.5323C2.70126 19.7543 2.7555 19.9866 2.89785 20.1639C3.0402 20.3412 3.2553 20.4443 3.48267 20.4443H19.4827C19.71 20.4443 19.9251 20.3412 20.0675 20.1639C20.2099 19.9866 20.2641 19.7543 20.215 19.5323C19.7994 17.6545 18.6923 15.9803 17.0988 14.7852C15.5065 13.5909 13.5222 12.9443 11.4827 12.9443Z" fill="currentColor"/>
</svg>
